<?xml version="1.0" encoding="utf-8"?>
<!-- Generator: Adobe Illustrator 27.0.1, SVG Export Plug-In . SVG Version: 6.00 Build 0)  -->
<svg version="1.1" id="Слой_1" xmlns="http://www.w3.org/2000/svg" xmlns:xlink="http://www.w3.org/1999/xlink" x="0px" y="0px"
	 viewBox="0 0 8000 8000" style="enable-background:new 0 0 8000 8000;" xml:space="preserve">
<style type="text/css">
	.st0{fill:#020203;}
	.st1{fill:#020203;stroke:#1E1E1C;stroke-linecap:round;stroke-miterlimit:10;}
	.st2{fill:url(#SVGID_1_);}
	.st3{fill:url(#SVGID_00000088097773960648638630000002766532709357386644_);}
	.st4{fill:url(#SVGID_00000074415720032346148700000003807692256122875071_);}
	.st5{fill:url(#SVGID_00000059287182850285564440000013946809561576390810_);}
	.st6{fill:url(#SVGID_00000180362292557712385600000011008606478894951069_);}
	.st7{fill:url(#SVGID_00000088855196738846044950000004817195898025044912_);}
	.st8{fill:url(#SVGID_00000177474287882128254490000015951823096215084479_);}
	.st9{fill:url(#SVGID_00000160896508857211292050000017541318614737047441_);}
	.st10{fill:#316397;}
</style>
<path class="st0" d="M804.97,3311.06c-0.33-8.48,0.63-16.05,1.24-24.29c0.01-0.43,0.03-0.86,0.06-1.29
	c-0.16-0.27-0.08-8.85-0.07-9.84c0.1-6.4,0.23-12.79,0.41-19.19c-0.33-1.28-0.62-2.56-0.83-3.87c-1.25,11.72-1.44,23.56-0.47,35.55
	c0.07,0.85-0.13,1.7-0.57,2.42c-0.65,1.06-1.02,2.19-1.11,3.39c-1.59,17.35-1.73,34.7-0.4,52.06c0.07,0.96,0.2,2.02,0.31,3.05
	c0.34-12.51,0.87-25.02,1.47-37.52C805.01,3311.38,804.98,3311.22,804.97,3311.06z"/>
<path class="st0" d="M1021.99,3362.68c-2.78-12-6.65-25.61-17.36-32.96c-13.4-9.19-33.64-7.05-48.87-5.75
	c-10.13,0.87-20.06,2.82-29.89,5.28c-0.85,0.69-1.75,1.33-2.75,1.87c-0.7,0.34-1.43,0.64-2.15,0.94c-2.76,2.71-6.39,4.67-10.92,5.38
	c-0.84,0.65-1.68,1.3-2.52,1.94l-0.11,0.07c-0.17,0.1-0.33,0.19-0.51,0.28c-0.82,0.39-1.62,0.72-2.42,1.05
	c-0.09,0.05-0.18,0.08-0.27,0.13c-0.57,0.44-1.14,0.88-1.71,1.32c-0.1,0.07-0.2,0.14-0.3,0.2c-0.06,0.03-0.12,0.07-0.18,0.09
	c-0.32,0.14-0.64,0.27-0.96,0.4c-8.97,8.35-17.84,16.8-26.5,25.49c-13.33,13.38-25.23,31.78-41.26,45.79
	c-0.64,0.57-1.05,1.35-1.14,2.19c-0.27,2.75-1.7,4.56-4.3,5.41c-0.84,0.25-1.54,0.84-1.94,1.62l-12.02,23.15
	c-0.86,1.69-2.67,2.66-4.56,2.45c-2.51-0.29-4.32-2.55-4.04-5.07c1.08-9.4-0.59-18.29-5.01-26.68c-0.45-0.89-0.49-1.93-0.11-2.85
	c0.76-1.79,1.79-3.26,2.89-4.61c-0.03-0.28-0.1-0.56-0.12-0.84c-0.19-3.56,0.14-6.99,0.79-10.34c-0.75-2.91-0.73-5.9,0.16-8.72
	c-0.01-0.25-0.06-0.47-0.06-0.73c0.03-13.04,0.29-26.06,0.68-39.08c-1.09-16.34-0.93-32.67,0.57-49.01
	c0.01-0.09,0.04-0.17,0.05-0.25c0.28-4.73,0.72-9.41,1.08-14.29c0.02-0.36,0.04-0.72,0.06-1.08c-0.19,0.34-0.1-8.83-0.08-9.85
	c0.01-0.58,0.03-1.16,0.04-1.74c-0.7-1.6-1.19-3.4-1.34-5.47c-0.2-2.84,0.1-5.52,0.61-8.14c0.15-2.29,0.28-4.58,0.4-6.87
	c-0.41-2.25-0.69-4.54-0.71-6.84c-0.12-12.93-0.35-25.9,2.71-38.5c0.11-2.1,0.24-4.19,0.45-6.27c0.3-2.35,0.55-4.32,0.77-5.98
	c0-1.32-0.01-2.64,0.05-3.97c0.01-0.3,0.03-0.6,0.04-0.9c-1.2-7.62-0.61-15.51-0.14-23.14c0.11-1.86,0.36-3.67,0.66-5.45
	c-0.32-4.5-0.32-8.94,0.13-13.35c-0.1-0.76-0.23-1.52-0.3-2.29c-1.97-21.38,0.27-42.31,0.5-63.68c0.14-12.98-0.23-26.45,0.33-39.77
	c-0.42-9.32-1.09-18.41-2.24-26.91c-0.97-7.21-0.8-14.41,0.67-21.08c-0.06-0.46-0.12-0.93-0.18-1.39
	c-1.14-8.32-1.67-16.54-1.59-24.66c0.13-12.17-0.28-20.44-1.22-24.8c-2.45-11.13-0.8-24.18-0.23-35.2
	c0.46-8.77-2.79-16.92-1.14-26.14c1.14-6.4,1.67-11.05,1.59-13.95c-0.46-17.8,0.65-36.85-2.31-53.2
	c-3.59-19.76-8.85-37.5-17.74-52.94c-0.55-0.5-0.93-1.15-1.13-1.87c-8.44-14.01-19.98-26.09-36.24-35.95
	c-4.15-2.51-8.16-5.22-12.08-8.06c-1.33-0.12-2.29-0.79-2.85-1.71c-0.84-0.07-1.56-0.32-2.09-0.76c-0.03,0-0.06-0.01-0.09-0.01
	c-2.27,0.16-4.29-0.41-6.09-1.64c-1.33-0.35-2.64-0.73-3.95-1.14c-2.34,0.21-4.45-0.34-6.33-1.65c-3.54-0.64-7.09-0.56-10.7-0.56
	h-9.37c-0.22,0.15-0.42,0.33-0.61,0.52c-2.39,2.54-5.19,2.94-8.4,1.2c-0.71-0.37-1.17-1.08-1.22-1.88
	c-1.42-19-5.18-39.82-11.28-62.45c-1.63-6.02-3.57-11.25-5.81-15.69c-5.01-9.88-5.98-19.93-14.75-27.77
	c-15.95-14.27-22.53-25.54-46.22-28.19c-49.12-5.52-79.74,23.49-87.8,69.54c-2.27,13.09-4.37,24.18-4.13,34.88
	c0.23,0.64,0.26,1.32,0.12,1.98c0.09,0.31,0.13,0.62,0.13,0.92c0.13,0.39,0.23,0.79,0.24,1.2c0,0.39,0.04,0.77,0.06,1.15
	c0.29,1.05,0.55,2.11,0.59,3.21c0,0.09,0,0.18,0,0.27c0.86,1.87,1.32,3.84,1.33,5.94c-0.04,0.29-0.08,0.58-0.12,0.87
	c0.04,0.21,0.08,0.43,0.11,0.64c0.71,2.36,1.57,4.73,2.64,7.14c1.13,2.52,1.58,6.62,0.65,9.26c-0.53,1.51-1.58,2.48-2.86,3.09
	c-0.14,0.1-0.24,0.22-0.39,0.31c-0.3,0.17-0.62,0.28-0.94,0.38c-0.45,0.21-0.94,0.29-1.43,0.26c-0.89,0.04-1.79-0.08-2.67-0.25
	c-0.15-0.03-0.29-0.09-0.44-0.12c-1.54-0.27-3.01-0.79-4.13-1.53c-0.11-0.07-0.18-0.18-0.28-0.26c-0.93-0.51-1.85-1.06-2.77-1.62
	c-1.7-1.02-3.56-1.72-5.23-2.79c-0.93-0.59-1.85-1.25-2.63-2.03c-0.37-0.37-0.7-0.78-1.03-1.2c-0.47-0.29-0.93-0.59-1.34-0.97
	c-0.86-0.56-1.56-1.28-2.21-2.06c-0.48-0.38-0.91-0.8-1.3-1.26c-28.67-22-62.04-2.97-79.72,24.86
	c-11.05,17.37-23.78,50.12-30.81,73.59c-10.59,35.29-19.96,72.59-28.11,111.89c-1.35,6.47-1.41,16.48-0.2,30.02
	c0.09,0.92-0.21,1.84-0.83,2.51c-1.31,1.48-2.9,1.93-4.76,1.34c-0.9-0.29-1.65-0.9-2.11-1.71c-3.99-6.81-7.86-14.47-13.56-19.48
	c-16.97-14.95-46.05-12.5-62.82-0.74c-22.58,15.8-43.17,60.32-54.31,87.51c-9.26,22.55-14.58,50.8-22.41,76.26
	c-0.28,0.88-0.22,1.83,0.14,2.68c3.82,8.83-0.57,16.03-4.44,23.89c-3.93,7.92-4.47,16.29-8.14,24.38
	c-2.09,4.58-3.48,8.31-4.19,11.19c-4.23,17.81-8.55,35.62-12.96,53.42c-2.31,9.34-0.71,17.8-4.27,27.25
	c-3.06,8.16-5.41,16.5-7.06,25c-1.25,6.44-5.5,12.16-6.69,18.82c-0.47,2.6-1.02,5.13-1.6,7.63c-1,5.84-2.44,11.7-4.3,17.48
	c-0.07,0.29-0.14,0.57-0.21,0.86c-0.41,5.78-1.31,11.63-2.66,17.47c-0.54,7.65-4.27,14.39-4.32,22.63c0,0.96-0.31,1.89-0.88,2.65
	c-2.66,3.63-3.78,7.75-3.36,12.36c0.07,0.93-0.13,1.86-0.6,2.68c-2.93,5.18-2.08,11.28-3.5,15.78c-3.85,12.07-7.85,24.1-11.99,36.08
	c-6.28,18.25-13.69,36.02-20.8,53.88c-1.07,5.77-2.62,11.53-4.51,17.22c-0.8,7.8-2.49,15.7-4.91,23.48c-1,6.9-2.68,13.84-4.91,20.68
	c-0.72,4.11-1.66,8.22-2.81,12.32c-0.3,11.21-2.55,22.78-6.35,34.04c-0.87,4.15-1.79,8.29-2.78,12.42
	c-0.73,3.01-1.65,5.94-2.65,8.83c-1.95,15.87-3.89,31.74-6.15,47.57c0.25,4.06,0.59,8.12,0.44,11.96
	c-0.27,6.89-0.79,13.75-1.24,20.62c0.05,8.72-0.16,17.45-0.68,26.17c-0.71,11.85,0.63,25.03-0.48,37.7
	c-0.46,5.13,2.65,12.84,2.39,19.54c-0.68,16.8,0.77,31.64-1.59,50.06c-1.06,8.33-1.54,15.85-1.42,22.55
	c0.78,43.97,4.03,87.75,9.77,131.34c1.94,14.78,3.65,37.93,7.12,57.89c9.97,57.24,24.12,111.35,44.99,163.52
	c3.19,7.95,5.68,16.14,7.46,24.55c0.07,0.33,0.28,0.6,0.57,0.74l0.74,0.4c0.58,0.31,1,0.86,1.14,1.51
	c1.99,8.81,4.29,17.52,6.89,26.14c3.19,10.54,0.85,21.87,1.74,32.92c0.13,1.63,0.13,3.25,0.09,4.88
	c3.55,18.72,5.15,37.93,4.55,57.99c-0.65,21.73-3.62,43.31-4.59,65.02c1.12,20.83,1.16,41.72,0.87,62.71
	c-0.02,1.13-0.01,2.25-0.02,3.38c0.13,1.63,0.24,3.28,0.28,4.97c0.03,1.1-0.11,2.12-0.32,3.1c-0.01,33.33,1.71,66.54,1.9,99.88
	c0.01,1.85-0.19,3.57-0.54,5.17c0.6,3,0.67,6.12,0.17,9.14c0.67,3.15,0.62,6.65-0.43,10.47c-0.25,0.9-0.44,1.81-0.64,2.72
	c0.86,28.95-0.6,57.76-3.86,86.44c0.11,1.49,0.07,2.99-0.1,4.48c0.47,3.22,0.33,6.55-0.43,9.71c0,0.19,0.02,0.38,0.02,0.57
	c0,0.66-0.04,1.32-0.1,1.96c0.03,0.56,0.11,1.09,0.1,1.67c-0.13,12.64-1.8,25.16-4.11,37.56c0.08,11.24-0.17,22.44-0.81,33.61
	c-0.85,14.55-6.66,32.81,14.52,36.39c2.04,0.35,4.07,0.47,6.1,0.4c3.77-48.55,11.97-96.83,12.8-145.61
	c1.22-71.56,5.74-143.09,5.9-214.66c0.01-2.32,0.07-4.62,0.19-6.9c-1.02-4.2-1.93-8.55-1.66-13.18c0.34-6.46-2.36-12.59-2.08-19.54
	c1.22-29.3-0.91-58.72,3.76-87.77c1.96-12.39-1.08-24.55,0.37-37.59c5.21-46.39-8.06-83.41-23.89-126.07
	c-15.75-42.55-30.87-89.93-38.02-132.76c-2.09-12.53-3.89-25.09-5.47-37.68c-0.77-4.51-1.51-9.03-2.09-13.57
	c-1.38-5.29-2.65-10.61-3.58-16c-1.17-6.8-1.9-13.65-2.42-20.53c-0.01-0.08-0.04-0.14-0.05-0.22c-3.73-20.14-3.99-40.19-3.49-60.29
	c-1.87-13.85-2.43-27.49-1.21-41.17c0-0.06-0.03-0.12-0.03-0.18c-1.14-52.63-1.74-105.25-1.79-157.88
	c-0.06-47.36,4.61-95.68,15.18-138.06c2.17-8.71,4.83-17.89,7.91-27.48c-0.12-17.29,6.74-33.26,14.46-48.51
	c0.42-6.6,2.27-12.93,7.37-19.24c0.47-4,1.12-7.98,2.16-11.91c3.46-13.07,8.41-25.94,13.24-38.74c6.02-26.74,13.4-53.17,22.62-78.98
	c0.33-1.78,0.76-3.54,1.3-5.26c1.22-5.02,2.45-10.02,3.68-15.02c-0.06-4.5,0.56-8.88,1.79-13.05c0.45-3.73,1.38-7.34,2.69-10.8
	c0.4-6.13,1.83-11.97,4.3-17.54c0.2-5.72,1.58-11.19,3.79-16.31c0.76-4.55,1.46-9.09,2.02-13.58c0.09-1.51,0.24-3.01,0.48-4.49
	c0.21-1.92,0.44-3.84,0.61-5.75c0.44-5.11,1.62-10.03,3.39-14.61c0.41-4.74,1.23-9.37,2.41-13.94c1.62-16.82,4.64-33.47,12.55-47.98
	c0.12-1.49,0.22-3.02,0.33-4.69c0.06-0.91,0.37-1.8,0.91-2.56c0.79-1.12,1.52-2.26,2.22-3.42c0.12-0.74,0.23-1.46,0.32-2.12
	c0.18-1.33,0.35-4.09,0.85-5.95c1.01-3.81,2.66-7.52,4.6-10.94c0.35-0.61,0.74-1.2,1.13-1.79c0.06-0.58,0.14-1.16,0.18-1.75
	c0.54-8.29,4.1-13.67,5.47-21.44c0.95-5.45,2.17-9.99,3.67-13.61c3.02-7.33,5.35-14.87,7.01-22.64c2.45-11.42,8.49-21.5,12.27-33.03
	c4.99-15.28,13.02-31.61,24.09-48.98c9.49-14.9,22.05-22.12,37.68-21.64c10.02,0.28,19.31,5.78,22.21,15.32
	c4.1,13.57,4.01,28.22-0.28,43.94c-3.82,13.98-1.74,36.34-7.69,56.53c-2.79,9.48-1.96,18.97-5.15,28.79
	c-2.56,8-2.45,13.78-1.82,21.5c0.08,0.95,0.36,1.83,0.85,2.65c4.44,7.35-2.02,9.08-4.16,13.67c-4.21,9-1.85,17.29-3.3,25.69
	c-1.77,10.17-1,20.02-4.41,29.5c-4.9,13.53-5.3,25.91-5.38,39.9c-0.03,5.64,3.08,12.1,0.43,19.22c-0.32,0.88-0.39,1.81-0.2,2.71
	c1.79,8.17-0.14,17.03-0.03,23.75c0.44,23.81-1.44,47.41-5.64,70.8c-0.17,0.93-0.11,1.85,0.17,2.76c0.68,2.18,0.87,4.2,0.57,6.04
	c-4.01,24.83-14.94,44.11-32.81,57.84c-12.7,9.77-36.71,17.23-19.56,38.5c7.29,9.06,13.61,2.79,19.31-3.25
	c2.76-2.9,5.79-4.48,8.9-5.7c11.04-13.59,23.57-26.03,33.13-40.68c8.42-12.9,12.85-26.72,16.9-41.02c0.12-4.04,0.28-8.08,0.6-12.11
	c-0.06-1.13-0.13-2.27-0.18-3.39c-1.53-20.59-5.64-41.64-2.59-61.87c1.43-9.52,2.25-19.09,2.46-28.73c0.03-1.24,0.04-2.49,0.05-3.73
	c0.06-6.24,2.36-12.1,2.39-18.65c0.06-10.71,9.11-44.83,9.11-46.13c0.13-20.47,11.59-65.56,11.19-69.71c-0.09-0.8-0.75-1.4-1.54-1.4
	h-2.53c-0.07,0-0.14,0-0.21-0.01c-0.97-0.11-1.66-1-1.55-1.98l0.77-5.92c0.12-0.94,0.85-1.69,1.79-1.82l3.79-0.54
	c0.84-0.12,1.52-0.73,1.71-1.54c1.77-6.97,3.26-13.96,4.47-20.99c1.51-8.6,6.86-16.52,4.13-27.45c-0.2-0.87-0.11-1.77,0.26-2.56
	l5.44-11.73c0.42-0.91,0.63-1.86,0.63-2.85c-0.2-16.94,8.91-29.84,7.75-47.61c-0.34-5.04,2.14-10.05,2.93-13.61
	c5.26-23.83,10.69-47.63,16.29-71.42c1.54-6.55,6.75-14.35,8.57-22.13c9.65-40.84,20.42-88.85,41.95-124.62
	c11.65-19.34,34.74-29.76,54.39-13.13c3.68,3.11,6.22,7.45,7.6,13.01c4.2,16.71,4.46,33.41,0.8,50.12
	c-4.24,19.36-7.46,37.13-12.22,55.47c-5.89,22.67-8.08,45.67-6.58,69c0.07,0.89,0.43,1.74,1.03,2.42
	c6.58,7.18,1.51,12.99-1.54,19.96c-3.33,7.55-1.28,22.1-1.25,30.56c0,3.65-0.83,8.16-2.48,13.56c-5.58,18.28,2.59,32.58-3.39,53.08
	c-0.26,0.93-0.27,1.92-0.03,2.85c0.97,3.8-0.05,6.63-3.05,8.49c-0.85,0.53-1.38,1.45-1.4,2.45c-0.17,7.14-1.4,13.31-2.05,20.4
	c-0.15,24.11-0.75,48.2-1.13,72.31c-0.28,18.16,1.75,37.68,0.19,56.26c0.15,1.05,0.25,2.14,0.26,3.28
	c0.29,25.14-13.65,45.46-19.19,68.96c-0.1,3.82-0.78,7.4-2.12,10.72c-6.34,15.85-9.38,31.03-9.11,45.54
	c0.26,13.73,16.6,11.96,21.81,2.68c3.03-5.37,6.36-10.79,9.59-16.31c3.83-10.41,7.19-21.03,10.58-31.76
	c1.97-6.25,4.14-12.41,6.37-18.54c0.39-13.71,10.44-35.8,9.36-53.88c-0.67-11.34,0.52-21.57,1.98-32.31
	c-0.12-0.78-0.2-1.59-0.2-2.45v-41.33c-3.4-27.51,0.93-61.19,1.07-93.38c0.03-10.22-0.03-24.92,3.9-34.4
	c1.77-4.21,0.26-7.89,1.57-11.96c1.48-4.58,3.59-7.86,4.13-12.79c0.21-1.87,0.57-3.69,1-5.48c0.13-14.58,0.9-29.1,2.15-43.55
	c-1.21-3.27-0.33-8.53,1.41-14.49c3.52-32.45,9.28-64.63,15.78-96.68l0.25-3.05c0.05-0.79,0.36-1.54,0.82-2.2
	c0.08-0.38,0.16-0.76,0.24-1.14c-0.7-10.45,0.3-21.08,3.35-32.06c0.22-0.78,0.47-1.5,0.72-2.24c0.62-4.92,1.87-10,4.35-15.7
	c0.47-1.07,0.87-2.24,1.3-3.37c1.07-12.25,3.2-24.48,5.24-36.58c0.02-0.46,0.05-0.92,0.06-1.38c0-5.32,1.13-10.43,3.14-15.13
	c0.39-19.49,2.09-38.85,5.26-58.05c4.03-24.32,7.46-41.9,28.88-48.33c2.18-1.33,4.68-2.24,7.04-2.82c1.66-0.41,3.37-0.7,5.09-0.92
	c4.64-1.96,9.68-3.07,14.92-3.07c8.28,0,16.05,2.72,22.49,7.26c2.44,0.44,4.94,0.8,7.58,0.95c1.99,0.09,3.55,1.22,4.67,3.39
	c0.37,0.72,0.98,1.3,1.74,1.65c3.87,1.77,5.57,4.85,5.1,9.26c-0.11,0.98-0.68,1.84-1.54,2.31c-1.29,0.68-2.09,1.56-2.46,2.61
	c0.71,2.12,1.22,4.31,1.55,6.55c9.91,21.4,9.27,40.07,10.98,61.94c0.07,0.97,0.5,1.89,1.2,2.56c2.89,2.83,3.38,6.19,1.48,10.08
	c-0.44,0.93-0.5,1.98-0.17,2.93c5.18,15.15,9.68,43.09,1.08,57.44c-2.81,4.71-4.02,9.33-3.65,13.87c0.09,0.96,0.5,1.85,1.17,2.53
	c2.64,2.66,4.43,5.79,5.38,9.4c0.26,0.97,0.78,1.84,1.51,2.51l6.69,6.01c0.11,0.1,0.24,0.19,0.38,0.27c0.93,0.5,2.09,0.15,2.58-0.78
	c1.17-2.17,2.81-6.64,3.6-11.01v-5.25c0-0.78,0.08-1.54,0.12-2.3c-0.28-1.11-0.74-2.04-1.47-2.68c-0.68-0.61-1.14-1.43-1.31-2.34
	c-2.49-13.88,3-22.34,14.2-29.89c5.36-5.72,12.24-9.98,19.91-12.08c12.28-4.9,29.39-4.37,37.97,6.6c0.54,0.67,1.24,1.19,2.02,1.51
	c3.97,1.54,6.94,4.1,8.91,7.69c0.49,0.87,1.14,1.62,1.94,2.25c9.06,7.01,9.68,16.92,13.95,27c5.55,13.04,6.49,23.72,7.03,37.11
	c0.04,0.93-0.17,1.86-0.6,2.68c-0.15,0.29-0.27,0.58-0.41,0.87c0.02,0.16,0.05,0.3,0.06,0.46c0.24,2.54-0.43,4.86-1.65,6.88
	c0.46,4.77,0.63,9.57,0.69,14.38c1.42,4.24,1.81,12.43,1.16,24.61c-0.49,8.39,1.18,16.04,5.01,22.95c0.47,0.84,0.71,1.72,0.71,2.65
	c-0.03,19.65,2.62,39.3-0.26,58.86c-1.14,7.88-2.09,15.78-2.85,23.69c-0.09,0.95-0.4,1.83-0.91,2.65c-0.02,0.03-0.04,0.07-0.06,0.1
	c-0.65,33.97-4.49,68.54,1.51,102.15c0.67,3.77-0.03,7.08-1.56,9.79c0.03,0.81,0.09,1.61,0.06,2.44v2.91
	c-0.01,2.39-0.28,4.71-0.67,6.99c0.01,0.8,0.03,1.61,0,2.41c-0.07,1.8-0.26,3.52-0.49,5.2c0.1,4.67,0.17,9.33,0.25,14
	c0.44,2.39,0.7,4.82,0.68,7.27c-0.03,2.56-0.24,5.11-0.49,7.65c0.04,4.96,0.1,9.92,0.09,14.88c0,1.22-0.15,2.44-0.36,3.67
	c0,0.23,0.04,0.47,0.03,0.7c-0.03,5.24-0.65,10.43-1.08,15.64c0.53,18.61,1.32,34.78,2.35,48.47c0.77,10.05,4.81,18.37,4.78,27.42
	c0,26.22-0.28,52.44-0.83,78.65c0,0.34-0.16,0.67-0.43,0.88l-0.88,0.74c-0.73,0.6-1.19,1.47-1.28,2.42
	c-0.46,5.58-2.34,10.88-2.25,16.2c0.26,20.08,0.63,38.53-0.34,60.09c-0.3,7.03-0.25,14.06,0.06,21.11c0.44,0.71,0.63,1.55,0.64,2.39
	c0.12,0.38,0.2,0.77,0.2,1.17v11.41c1.36,13.09,1.75,26.21,1.67,39.37c1.22,1.37,1.41,3.55,0.58,5.18c0.32,0.51,0.55,1.06,0.55,1.67
	c0.08,17.69,0.78,35.35,2.11,52.97c0.83,10.74-0.77,21.39-1.2,32.27c-0.04,0.91-0.36,1.79-0.94,2.53c-0.17,0.22-0.28,0.43-0.42,0.65
	c0.45,8.46-2.37,16.96-4.86,25.07c-0.97,4.46-2.13,8.96-3.63,13.28c-1.65,6.47-3.38,12.89-6.2,18.99
	c-0.77,4.54-2.85,8.09-4.22,12.21c-4.31,13.14-8.88,26.17-13.73,39.1c-2.32,6.25-4.17,12.72-5.55,19.42
	c-0.2,1.01-0.75,1.91-1.55,2.55c-1.89,1.52-4.65,1.22-6.17-0.67c-14.14-17.6-32.62-26.37-55.42-26.31
	c-8.34,0.03-13.07,16.72-14.15,22.67c-0.07,0.41-0.1,0.82-0.07,1.23c0.19,2.78,2.59,4.88,5.37,4.69
	c19.99-1.45,35.51,9.23,47.3,24.46c11.48,14.84-27.65,27.91-34.74,30.61c-15.43,5.89-21.19,19.48-15.01,35.34
	c0.33,0.87,0.94,1.61,1.74,2.11c6.66,4.1,12.02,9.23,20.3,8.2c8.09-0.97,15.44-3.94,22.07-8.91c0.75-0.56,1.33-1.32,1.68-2.19
	c3.87-9.78,9.39-18.3,16.55-25.57c10.79-10.94,17.46-20.39,26.57-30.7c2.85-3.22,3.27-4.76,4.47-8.66
	c5.22-16.84,11.86-33.06,19.91-48.67c9.06-17.63,14.35-33.4,20.9-50.92c1.54-4.1,1.25-7.95,2.31-11.48c4.8-15.8,7.05-31.9,6.75-48.3
	c-0.13-7.25,1.26-14.21,3.11-21.09c-0.06-5.5,1.04-10.83,2.35-16.13c0.45-4.15,1.12-8.27,1.9-12.38c0.34-3.79,0.92-7.55,2.05-11.17
	c0.31-2.58,0.73-5.13,1.48-7.64c0.19-0.63,0.49-1.12,0.84-1.55c3.42-15.99,11.8-30.46,18.09-45.49c3.69-8.8,7.19-17.74,12.04-25.98
	c3.28-5.58,6.56-11.35,10.8-16.29c2.29-5.67,4.91-11.11,8.86-15.91c13.09-15.96,36.99-39.5,59.61-47.66
	c2.11-1.91,4.75-3.33,7.82-4.19c1.6-0.92,3.27-1.57,4.97-1.97c0.54-0.32,1.09-0.61,1.66-0.86c1.21-0.73,2.5-1.31,3.84-1.81
	c2.01-0.97,4.3-1.61,6.84-1.91c2.29-0.96,4.9-1.53,7.82-1.63c1.85-0.48,3.85-0.77,6.04-0.77c4.09,0,7.58,0.93,10.5,2.5
	c4.04,1.24,7.27,3.5,9.62,6.45c0.68,0.26,1.17,0.9,1.2,1.67c4.66,7.22,4.9,17.27,0.71,24.77l0.04,1.33c0.01,0.83-0.4,1.59-1.06,2.07
	c-0.42,2.44-1.21,4.81-2.35,6.98c-0.06,0.18-0.11,0.37-0.17,0.55c-1.83,10.63-7.45,17.91-10.34,28.38
	c-6.04,21.96-17,44.6-19.71,61.51c-1.88,11.62-4.21,23.16-6.98,34.63c-0.23,0.91-0.64,1.73-1.22,2.45
	c-0.66,0.82-1.03,1.51-1.11,2.08c-3.39,29.93-11.93,56.87-20.76,85.38c-2.79,8.97-4.5,17.49-7.15,24.66
	c-8.8,23.64-9.71,44.54-10.85,73.04c-0.91,22.75,1.91,47.96,1.91,67.46c0.02,27.13-0.11,54.27-0.4,81.42
	c-0.14,15.01-2.28,33.32-10.17,46.39c-4.93,8.19-8.66,15.93-15.77,22.27c-0.12,0.46-0.31,0.92-0.65,1.39
	c-7.29,10.3-15.89,19.52-23.85,29.29c-3.8,4.66-7.44,9.53-10.6,14.65c-0.01,0.04-0.01,0.07-0.02,0.11
	c-1.4,4.39-3.58,8.31-6.21,11.94c-0.61,1.3-1.24,2.59-1.88,3.86c-1.5,2.96-5.61,11.12-10.1,12.82c-0.73,1.22-1.6,2.33-2.53,3.39
	c-6.12,11.06-17.39,18.9-25.72,28.15c-5.95,6.6-11.56,13.5-17.49,20.13c-0.38,0.72-0.92,1.35-1.63,1.77
	c-0.14,0.08-0.26,0.19-0.39,0.28c-1.26,1.23-2.58,2.44-3.92,3.68c-1.29,2.17-2.64,4.3-4.12,6.33c-0.11,0.15-0.2,0.3-0.32,0.43
	c-1.36,1.84-2.84,3.59-4.48,5.22c-0.07,0.29-0.17,0.56-0.2,0.87c-0.13,0.99-0.63,1.88-1.4,2.51c-6.86,5.52-9.74,13.44-14.72,19.42
	c-6.51,7.8-12.25,16.83-17.23,27.08c-1.75,3.59-4.73,7.02-8.94,10.28c-15.41,21.61-27.68,35.51-50.23,47.56
	c-12.59,6.72-21.47,16.74-32.95,24.95c-2.11,1.51-4.09,2.96-5.97,4.4c-0.19,0.28-0.43,0.63-0.79,1.15
	c-1.91,2.93-3.75,5.89-5.43,8.96c-0.32,0.58-3.84,7.69-3.75,7.15c-6.31,14.96-9.83,31.37-13.05,47.18
	c-4.2,20.61-9.64,40.76-13.39,60.7c-0.37,5.62-0.92,11.22-1.62,16.81c0.36,15.11,0.67,30.2-1.02,45.27
	c0.49,4.6,1.29,9.16,1.83,13.76c0.43,2.49,0.8,4.99,1.03,7.51c0.01,0.1,0.01,0.19,0.02,0.29l0.68,3.32c0.17,0.88,0.1,1.79-0.2,2.65
	c-0.02,0.05-0.03,0.09-0.04,0.14c0.17,2.44,0.25,4.9,0.37,7.34c0.36,2.1,0.84,4.18,1.52,6.24c0.47,1.43,0.2,2.62-0.47,3.52
	c0.29,1.36,0.51,2.75,0.54,4.23c0.11,7.14,0.15,14.28,0.11,21.42c-0.02,0.43,0.27,0.82,0.68,0.94c2.05,0.63,0.14,125.13-0.65,137.29
	c-0.22,3.24-0.89,7.17-1.66,11.38c-0.61,5.95-1.43,11.86-2.42,17.74c-0.19,2.45-0.4,4.91-0.64,7.36c0.07,1.47,0.23,2.86,0.51,4.13
	c1.22,5.56,1.17,10.22,0,14.07c7.72,20.12,4.05,46.7,1.14,68.17c2.93,6.43,3.58,13.91,1.88,22.47c-0.19,0.93-0.15,1.84,0.11,2.73
	c0.25,0.8,0.38,1.59,0.4,2.39c0.8,20.12,1.06,40.25,0.8,60.37c-0.28,20.56,3.67,41.75,4.1,63.02c0.13,6.08,1.03,12.3,2.68,18.68
	c3.19,12.42,5.16,25.03,5.92,37.85c0.23,3.82,2.14,6.78,2.28,11.02c0.17,4.93,1.3,9.14,2.64,13.17c1.34,0.26,2.66,0.51,3.97,0.71
	c1.79,0.28,3.57,0.55,5.35,0.78c0.94-1.19,2.11-2.31,3.54-3.3c1.23-0.85,2.41-1.56,3.57-2.16c2.63-1.74,4.75-3.67,6.39-6.12
	c-2.91-12.39-5.12-24.92-6.76-37.55c-2.08-6.52-2.58-13.6-2.67-20.43c0-0.21,0.03-0.41,0.03-0.62c-1.87-9.88-3.94-19.92-3.37-29.92
	c0.02-0.37,0.07-0.73,0.11-1.09c-1.41-9.63-2.42-19.31-2.76-29.09c-0.79-22.81-1.09-45.64-1.21-68.48
	c-0.96-12.92-1.31-26.21-0.08-38.54c0-7.1,0.01-14.21,0.01-21.31c0-2.83,0.3-5.6,0.86-8.3c-0.05-1.19-0.06-2.37,0.06-3.46
	c1.33-11.77,1.4-23.55,0.23-35.34c-0.74-7.35-4.27-18.23-3.62-27.54c0.82-11.85,2.78-24.44,5.89-37.79
	c2.36-10.19,2.31-20.59,4.02-31.01c5.84-35.74,4.1-68.63,2.34-104.54c-0.49-9.76-1.3-18.6-2.42-26.51
	c-3.17-22.33-4.58-43.93-4.21-64.81c0.23-14.18,3.16-32.55,3.5-49.12c0.2-10.91,4.36-21.16,6.04-32.89
	c8.51-59.94,59.43-75.07,95.57-115.08c10.07-11.15,18.63-21.27,25.72-30.39c4.34-11.68,10.27-22.89,17.21-32.84
	c7.09-16.51,17.22-31.76,28.79-43.33c2.23-2.23,4.6-4.36,7.02-6.43c5.07-5.5,10.55-10.69,15.37-16.17c3.06-3.48,6.01-7.06,9.13-10.5
	c2.55-2.81,5.46-5.32,7.58-8.49c3.43-5.12,6.22-11.03,11.27-14.73c0.17-0.29,0.36-0.57,0.59-0.82c0.61-0.66,1.21-1.34,1.82-2
	c3.01-7.43,11.41-15.34,16.13-22.42c10.62-15.98,23.72-29.76,35.82-44.42c26.37-31.92,23.27-53.31,24.55-92.21
	c0.8-23.92,0.8-47.64,0.68-71.56c0-0.93-0.26-1.84-0.74-2.62c-0.8-1.37-1.08-2.75-0.85-4.16c0.59-3.73,1.03-7.42,1.34-11.09
	c-0.19-5.93-0.08-11.94,0.02-17.97c-0.11-1.42-0.22-2.85-0.28-4.28c-0.12-2.71-0.07-5.47,0.05-8.23c-0.37-4.72-0.36-9.3-0.09-13.77
	c0.09-15.95,4.37-32.7,11.28-48.3c0.33-2.2,0.7-4.39,1.09-6.59c0.99-8.25,2.96-16.59,5.71-24.76c0.73-2.61,1.48-5.21,2.27-7.81
	c1.1-4.8,2.49-9.57,4.15-14.28c1.28-5.1,2.93-9.98,5.09-14.72c0.81-8.45,2.62-17.02,5.32-25.43c0.23-7.51,1.36-15.19,3.22-22.82
	c1.13-13.44,4.95-27.24,10.65-40.23c0.33-1.54,0.67-3.17,1.05-4.93c1.82-8.49,0.48-21.59,4.76-28.48c0.47-0.78,0.72-1.61,0.74-2.51
	c0.04-1.11,0.21-2.17,0.46-3.2c0.67-8.92,4.12-16.96,9.6-23.89c3.46-11.15,7.77-24.11,12.94-38.93c1.5-4.29,2.54-8.54,3.18-12.75
	C1024.2,3375.49,1023.47,3369.06,1021.99,3362.68z"/>
<path class="st0" d="M144.63,3386.17c1.6-6.73,3.27-13.44,5.06-20.13c-2.04,6.43-3.56,11.24-3.56,11.24
	S122.08,3460.24,144.63,3386.17z"/>
<path class="st0" d="M121.3,3462.12c0.2-0.39,0.37-0.76,0.57-1.15l20.6-70.98l2.64-5.85c4.37-18.19,9.39-36.21,15.25-53.97
	l-5.28-5.05l-39.75,143.13h2.87C119.22,3466.19,120.25,3464.15,121.3,3462.12z"/>
<path class="st0" d="M778.37,3383.58c0.56,3.08,0.71,6.16,0.72,9.26l15.82-105.12L780.3,3221l-2.39,161.46
	C778.12,3382.81,778.29,3383.18,778.37,3383.58z"/>
<polygon class="st0" points="331.52,3130.26 350.84,3052.49 325.7,3095.36 "/>
<polyline class="st0" points="306.05,3135.1 316.37,3070.32 325.7,3110.87 315.87,3150.61 "/>
<path class="st0" d="M464.34,3077.15l25.19-120.43l-11.63-52.35l-13.53,169.36C464.36,3074.87,464.35,3076.01,464.34,3077.15z"/>
<path class="st0" d="M806.36,3438.85c-0.09-0.34-0.15-0.69-0.15-1.04c-0.01-4.19-0.2-8.38,0.76-12.49l-3.75-28.64l-8.3,30.23
	l11.3,13.12c0-0.01,0-0.02,0-0.03C806.21,3439.6,806.26,3439.22,806.36,3438.85z"/>
<path class="st0" d="M779.21,3172.91v221.63c0.04,0.72,0.05,1.44,0,2.16v34.38l15.7-168.98L779.21,3172.91z"/>
<polyline class="st0" points="161.77,3198.59 191.35,3083.03 191.35,3130.26 "/>
<path class="st0" d="M640.9,4885.44c0-0.21,0.03-0.41,0.03-0.62c-1.87-9.88-3.94-19.92-3.37-29.92c0.02-0.37,0.07-0.73,0.11-1.09
	c-1.41-9.63-2.42-19.31-2.76-29.09c-1.49-42.75-1.28-85.56-1.28-128.32c0-3.15,0.4-6.23,1.1-9.21l-0.17-7.92l3.94-108.78
	l-24.31,9.57l9.14,87.25l-18.05-36.8c-0.06,0.31-0.12,0.62-0.17,0.94l4.84,147.81l30.44,167.07l8.54-9.32
	c-2.21-10.3-3.99-20.69-5.34-31.15C641.49,4899.35,640.99,4892.27,640.9,4885.44z"/>
<polygon class="st0" points="195.02,3070.32 178.91,3133.97 179.68,3169.94 195.02,3110.46 "/>
<path class="st0" d="M182.66,3238.23c0.74-4.49,1.43-8.96,1.99-13.39c0.08-1.42,0.24-2.81,0.45-4.2c0.22-2.02,0.47-4.04,0.64-6.04
	c0.78-9.01,3.75-17.46,8.54-24.41l11.06-64.73l-25.63,46.02l1.5,70.4C181.63,3240.64,182.14,3239.43,182.66,3238.23z"/>
<path class="st0" d="M969.8,3346.85c1.04-0.13,2.11-0.23,3.24-0.23c4.11,0,7.6,0.94,10.53,2.51c4.66,1.43,8.24,4.25,10.64,7.87
	l0.3,0.12l6.89-19.4L969.8,3346.85z"/>
<path class="st0" d="M777.17,2841.31c0.03,2.71,0.03,5.42,0.02,8.14l0.67,54.92l1.36,110.52l15.7-110.52L777.17,2841.31z"/>
<line class="st0" x1="775.96" y1="2790.46" x2="786.26" y2="2833.6"/>
<path class="st0" d="M718.68,2737.36l2.78,0.59c3.24,0.29,6.38,0.97,9.38,1.98l0.27,0.06l0.7,0.3c1.68,0.61,3.32,1.32,4.9,2.14
	l4.46,1.95l2.6,1.93c1.24,0.83,2.44,1.71,3.59,2.66l3.02,2.25l7.57,9.14l2.18,5.95c0.31,0.53,0.62,1.05,0.91,1.59l6.72-3.13
	l4.21-10.66l-8.09-13.84l-34.32-20.09l-28.38,16.79l9.38,0.39H718.68z"/>
<path class="st0" d="M655.69,2605.73l-32.78-14.49l16.25,16.49l18.22-0.03C656.77,2607.09,656.21,2606.43,655.69,2605.73z"/>
<path class="st0" d="M675.8,2823.32v-34.8c0-1.53,0.09-3.03,0.25-4.5c-0.15-1.39-0.25-2.8-0.25-4.22c0-5.75,1.24-11.27,3.46-16.32
	l-0.68-12.27l-18.42-122.15l-21-21.31l-13.54,0.02l10.54,7.72l6.48,13.19l0.42,4.56c0.62,2.73,0.97,5.54,0.97,8.43
	c0,0.45-0.05,0.88-0.07,1.32l1.24,13.43l2.12,26.95l0.68,36.82l-2.29,34.87l-0.84,42.77l-4.29,51.31l-0.12,44.6l-4.29,51.25l24-3.78
	h9.24c-0.06-0.19-0.14-0.39-0.19-0.58c-0.59-1.89-0.68-3.79-0.25-5.68c0.07-1.62,0.52-3.14,1.29-4.57c0.04-0.12,0.07-0.25,0.1-0.38
	c-0.66-1.5-0.98-3.09-0.92-4.79v-0.73c0.01-1.86,0.36-3.63,1.03-5.3c0.15-0.6,0.25-1.2,0.47-1.78c0.09-0.52,0.15-1.05,0.29-1.56
	c-0.19-0.94-0.33-1.93-0.34-3c-0.03-5.82,0.97-11.46,2.05-17.07c0.03-0.26,0.05-0.52,0.1-0.78c-0.3-1.93-0.25-3.92,0.15-5.83
	c-0.35-1.77-0.44-3.6-0.2-5.39c-0.09-2.38-0.14-4.77-0.05-7.22c0.09-2.34,0.27-4.66,0.47-6.99c-0.54-0.97-0.97-2-1.28-3.1
	c-0.17-1.26-0.34-2.52-0.51-3.79c-0.07-1.96,0.33-3.79,1.23-5.49c0.12-0.37,0.33-0.68,0.48-1.02c0.18-1.73,0.42-3.45,0.72-5.16
	c0.07-0.84,0.22-1.66,0.45-2.45c0.03-0.17,0.07-0.34,0.1-0.5c-0.01-0.21-0.07-0.43-0.07-0.64v-8.72c0-1.62,0.33-3.12,0.82-4.54
	c-0.04-0.91-0.09-1.81-0.1-2.73c-0.01-0.98,0.09-1.89,0.24-2.76L675.8,2823.32z"/>
<path class="st0" d="M670.02,2975.95c0.01-0.08,0.03-0.16,0.05-0.24c-1.8-11.08-1.61-22.51-0.42-33.77
	c-0.17-0.44-0.32-0.87-0.44-1.3c-0.59-1.89-0.68-3.79-0.25-5.68c0.04-0.97,0.26-1.89,0.56-2.79l-33.36,12.82l-1.21,55.36l1.21,19.67
	l3.96,16.21l-2.58,16.26l-2.58,17.83l-2.3,21.06l-4.47,16.19l5.97,9.12l18.12-2.91l7.89-3.31l5.36-11.33l3.87-20.06l2.02-14.98
	v-16.23l-1.64-18.18C665.83,3012.07,667.01,2992.51,670.02,2975.95z"/>
<path class="st0" d="M654.5,2641.64"/>
<polygon class="st0" points="660.16,2624.2 653.15,2631.69 660.16,2637.78 "/>
<polygon class="st0" points="585.51,2601.67 616.38,2601.67 625.62,2607.76 652.26,2611.6 573.88,2584.46 591.62,2599.7 
	608.13,2599.7 603.94,2600.06 "/>
<path class="st0" d="M636.92,2618.02c0.47,1.02,0.82,2.06,1.13,3.12c3.71,5.97,5.92,12.93,5.96,20.31l9.14-9.76l-16.42-14.28
	c0.05,0.13,0.13,0.25,0.16,0.39C636.9,2617.88,636.91,2617.95,636.92,2618.02z"/>
<line class="st0" x1="632.44" y1="2595.46" x2="584.04" y2="2579.61"/>
<polyline class="st0" points="628.18,3107.57 625.97,3130.26 624.63,3140.81 619.85,3150.61 618.78,3166.23 615.45,3185.81 
	612.91,3208.92 610.93,3226.39 608.13,3251.18 601.39,3278.72 599.83,3307.67 599.83,3320.87 601.81,3333.72 602.55,3340.11 
	607.05,3346.01 614.01,3347.42 619.85,3345.7 625.97,3325.11 625.97,3296.03 627.2,3273.73 628.18,3255.31 631.53,3241.61 
	635,3227.49 635,3213.63 639.71,3199.35 643.68,3172.91 648.91,3148.55 652.26,3130.26 660.16,3110.46 660.16,3101.17 "/>
<path class="st0" d="M608.13,3251.18l5.92-52.46c0.23-2.28,1.2-4,2.9-5.15c0.6-0.4,1.41-0.24,1.82,0.36
	c0.03,0.05,0.06,0.1,0.09,0.16c6.21,12.76,0.26,17.71,1.54,29.9c0.09,0.91-0.04,1.78-0.4,2.62c-2.35,5.43-1.17,9.98,3.56,13.64
	c0.73,0.55,1.12,1.44,1.05,2.36l-1.42,20.79c-0.08,0.97,0.06,1.92,0.4,2.85c1.37,3.78,0.97,7.57-1.2,11.39
	c-0.52,0.93-1.65,1.33-2.65,0.94l-8.77-3.39c-1-0.38-1.68-1.32-1.74-2.39L608.13,3251.18z"/>
<polyline class="st0" points="340.02,3110.46 356.38,3029.48 369.85,2955.66 350.84,2976.11 330.3,3079.07 325.7,3124.44 "/>
<polyline class="st0" points="306.05,3130.26 295.81,3210.29 300.93,3239.32 320.12,3162.25 "/>
<polyline class="st0" points="476.74,3083.03 466.39,3057.26 467.41,3035.59 479.36,3035.59 "/>
<path class="st0" d="M810.15,3052.21l-31.5-33.18l2.46,121.78l5.95,14.9l23.07-101.95C810.14,3053.24,810.15,3052.72,810.15,3052.21
	z"/>
<polygon class="st0" points="776.48,2832.28 778.47,2818.7 778.35,2818.12 "/>
<path class="st0" d="M784.76,2760.37h-26.81l2.18,5.95c2.24,3.76,3.9,7.86,4.8,12.19l9.37,20.05l4.06,19.56l7.33-55.44
	C785.14,2762.04,784.84,2761.22,784.76,2760.37z"/>
<polyline class="st0" points="777.61,2803.89 787.06,2803.89 794.53,2824.88 776.85,2837.23 "/>
<path class="st0" d="M735.21,2716.78c-0.64-0.31-1.14-0.79-1.49-1.36c-0.83-0.07-1.53-0.31-2.07-0.74l-3.56-1.05
	c-0.39-0.08-0.77-0.16-1.14-0.25c-3.58-0.82-7.02-2.13-10.59-2.97c-3.93-0.92-7.88-0.77-11.89-0.77h-10.41l-7.98,1.72l15.09,21.89
	l43.39-4.3L735.21,2716.78z"/>
<polyline class="st0" points="668.98,2950.07 674.52,2838.69 663.31,2853.24 "/>
<path class="st0" d="M514.81,2678.48l0.15,1.6c0.14,0.47,0.19,0.96,0.13,1.44l0.13,1.43c0.08,0.32,0.14,0.64,0.15,0.96
	c0,0.39,0.04,0.77,0.06,1.16c0.29,1.05,0.55,2.1,0.59,3.21c0,0.11,0,0.21,0,0.32c0.85,1.85,1.32,3.81,1.33,5.89
	c-0.04,0.29-0.08,0.58-0.12,0.87c0.17,1.03,0.29,2.06,0.38,3.1c0.05,0.13,0.11,0.26,0.16,0.39c0.16,0.71,0.23,1.44,0.23,2.16
	c0,0.09-0.02,0.17-0.03,0.25c0.11,0.47,0.21,0.94,0.34,1.41c0.01,0.03,0.01,0.05,0.01,0.08c0.17,0.64,0.33,1.28,0.48,1.93
	c0.41,1.74,0.73,3.55,0.77,5.34c0.01,0.4-0.01,0.78-0.05,1.16c0,0.13,0.04,0.27,0.03,0.4c0.1,1.36-0.34,2.66-1.4,3.62l0.46,4.99
	l7.76-41.7H514.81z"/>
<path class="st0" d="M514.89,2679.82l0.23,2.43c0.01,0.09,0.02,0.18,0.02,0.26l0.02,0.25c0.12,0.38,0.21,0.76,0.21,1.16
	c0.01,0.71,0.04,1.41,0.1,2.12c0,0.05,0.01,0.16,0.02,0.27l0.03,0.28c0-0.04,0-0.06,0-0.11c0,0.3,0.09,0.62,0.14,0.91
	c0.23,1.36,0.53,2.72,0.81,4.07c0.49,2.31,0.95,4.66,1.14,7.02c0.05,0.12,0.1,0.25,0.16,0.37c0.16,0.71,0.23,1.44,0.23,2.16
	c0,0.09-0.02,0.17-0.03,0.25c0.11,0.47,0.21,0.94,0.34,1.41c0.01,0.03,0.01,0.05,0.01,0.08c0.17,0.64,0.33,1.28,0.48,1.93
	c0.41,1.74,0.73,3.55,0.77,5.34c0.01,0.34-0.04,0.66-0.06,0.99c0.01,0.19,0.06,0.38,0.04,0.57c0.05,0.61-0.05,1.21-0.22,1.78
	c0.29,0.06,0.54,0.09,0.56-0.01l-1.14,1.2c-0.21,0.3-0.47,0.57-0.78,0.81l-0.63,0.66l2.16-0.61l4.38-3.03l1.18-26.85L514.89,2679.82
	z"/>
<path class="st1" d="M806.07,2869.14"/>
<path class="st1" d="M821.04,3432.9"/>
<g>
	<g>
		
			<linearGradient id="SVGID_1_" gradientUnits="userSpaceOnUse" x1="1811.5316" y1="4152.3911" x2="8000" y2="4152.3911" gradientTransform="matrix(1 0 0 -1 0 8002)">
			<stop  offset="0" style="stop-color:#2782C5"/>
			<stop  offset="1" style="stop-color:#2782C5;stop-opacity:0"/>
		</linearGradient>
		<path class="st2" d="M2130.98,4580.38v-1417.7h-319.45v-43.85h684.84v43.85h-319.46v1417.7H2130.98z"/>
		
			<linearGradient id="SVGID_00000159452498423572974110000013687732471950637227_" gradientUnits="userSpaceOnUse" x1="1811.5316" y1="4152.3916" x2="8000" y2="4152.3916" gradientTransform="matrix(1 0 0 -1 0 8002)">
			<stop  offset="0" style="stop-color:#2782C5"/>
			<stop  offset="1" style="stop-color:#2782C5;stop-opacity:0"/>
		</linearGradient>
		<path style="fill:url(#SVGID_00000159452498423572974110000013687732471950637227_);" d="M3106.03,3818.29v41.76h-430.12v676.49
			h511.54v43.84h-557.47V3118.84h557.47v43.85h-511.54v655.61H3106.03z"/>
		
			<linearGradient id="SVGID_00000043426227107379777630000004890827026551394688_" gradientUnits="userSpaceOnUse" x1="1811.5316" y1="4153.4355" x2="8000" y2="4153.4355" gradientTransform="matrix(1 0 0 -1 0 8002)">
			<stop  offset="0" style="stop-color:#2782C5"/>
			<stop  offset="1" style="stop-color:#2782C5;stop-opacity:0"/>
		</linearGradient>
		<path style="fill:url(#SVGID_00000043426227107379777630000004890827026551394688_);" d="M3471.38,4235.88l-85.6,344.5h-41.76
			l352.87-1463.64h64.72l361.21,1463.64h-45.93l-85.6-344.5H3471.38z M3479.73,4194.11h503.18l-254.73-1023.08L3479.73,4194.11z"/>
		
			<linearGradient id="SVGID_00000057840135508173405910000005850176688386925721_" gradientUnits="userSpaceOnUse" x1="1811.5316" y1="4152.3994" x2="8000" y2="4152.3994" gradientTransform="matrix(1 0 0 -1 0 8002)">
			<stop  offset="0" style="stop-color:#2782C5"/>
			<stop  offset="1" style="stop-color:#2782C5;stop-opacity:0"/>
		</linearGradient>
		<path style="fill:url(#SVGID_00000057840135508173405910000005850176688386925721_);" d="M4586.31,3108.39
			c55.66,0,102.98,9.75,141.98,29.23c38.94,19.51,70.62,45.93,95,79.34c24.33,33.4,42.07,72.75,53.24,117.96
			c11.13,45.25,16.7,92.91,16.7,143.02v112.75h-45.93v-114.83c0-44.53-4.53-86.65-13.58-126.32
			c-9.07-39.67-23.69-74.11-43.84-103.35c-20.21-29.23-46.98-52.52-80.39-69.95c-33.4-17.38-73.81-26.1-121.11-26.1
			c-48.74,0-89.77,8.72-123.18,26.1c-33.42,17.43-60.23,40.72-80.39,69.95c-20.2,29.23-34.82,63.69-43.85,103.35
			c-9.07,39.68-13.58,81.79-13.58,126.32v747.48c0,44.55,4.5,86.31,13.58,125.26c9.03,39,23.66,73.08,43.85,102.3
			c20.16,29.24,46.97,52.57,80.39,69.95c33.4,17.41,74.44,26.1,123.18,26.1c47.3,0,87.7-8.68,121.11-26.1
			c33.4-17.38,60.18-40.71,80.39-69.95c20.15-29.23,34.76-63.31,43.84-102.3c9.04-38.94,13.58-80.71,13.58-125.26v-160.78h45.93
			v158.69c0,50.11-5.57,97.8-16.7,143.02c-11.16,45.25-28.9,84.57-53.24,117.98c-24.38,33.4-56.05,59.86-95,79.34
			c-38.99,19.47-86.33,29.23-141.98,29.23c-55.69,0-102.67-9.75-140.93-29.23c-38.3-19.47-69.62-45.93-93.96-79.34
			c-24.38-33.4-42.12-72.72-53.24-117.98c-11.16-45.21-16.7-92.91-16.7-143.02v-743.3c0-50.12,5.54-97.78,16.7-143.02
			c11.12-45.21,28.87-84.56,53.24-117.96c24.33-33.4,55.66-59.83,93.96-79.34C4483.64,3118.15,4530.62,3108.39,4586.31,3108.39z"/>
		
			<linearGradient id="SVGID_00000086675291529152828460000008605962143604900273_" gradientUnits="userSpaceOnUse" x1="1811.5316" y1="4152.3916" x2="8000" y2="4152.3916" gradientTransform="matrix(1 0 0 -1 0 8002)">
			<stop  offset="0" style="stop-color:#2782C5"/>
			<stop  offset="1" style="stop-color:#2782C5;stop-opacity:0"/>
		</linearGradient>
		<path style="fill:url(#SVGID_00000086675291529152828460000008605962143604900273_);" d="M5102.03,3870.49v709.89h-45.94V3118.84
			h45.94v709.89h528.23v-709.89h45.94v1461.55h-45.94v-709.89L5102.03,3870.49L5102.03,3870.49z"/>
		
			<linearGradient id="SVGID_00000026146524413772595780000008357999154206452878_" gradientUnits="userSpaceOnUse" x1="1811.5316" y1="4152.3916" x2="8000" y2="4152.3916" gradientTransform="matrix(1 0 0 -1 0 8002)">
			<stop  offset="0" style="stop-color:#2782C5"/>
			<stop  offset="1" style="stop-color:#2782C5;stop-opacity:0"/>
		</linearGradient>
		<path style="fill:url(#SVGID_00000026146524413772595780000008357999154206452878_);" d="M5887.09,4580.38h-43.85V3118.84h64.72
			l513.63,1367.58V3118.84h43.84v1461.55h-56.36l-521.98-1394.73V4580.38z"/>
		
			<linearGradient id="SVGID_00000066516335232328928550000017965636700184958623_" gradientUnits="userSpaceOnUse" x1="1811.5316" y1="4152.3916" x2="8000" y2="4152.3916" gradientTransform="matrix(1 0 0 -1 0 8002)">
			<stop  offset="0" style="stop-color:#2782C5"/>
			<stop  offset="1" style="stop-color:#2782C5;stop-opacity:0"/>
		</linearGradient>
		<path style="fill:url(#SVGID_00000066516335232328928550000017965636700184958623_);" d="M7108.49,3818.29v41.76h-430.11v676.49
			h511.53v43.84h-557.47V3118.84h557.47v43.85h-511.53v655.61H7108.49z"/>
		
			<linearGradient id="SVGID_00000007395576623811782200000005147071140179098264_" gradientUnits="userSpaceOnUse" x1="1811.5316" y1="4152.3911" x2="8000" y2="4152.3911" gradientTransform="matrix(1 0 0 -1 0 8002)">
			<stop  offset="0" style="stop-color:#2782C5"/>
			<stop  offset="1" style="stop-color:#2782C5;stop-opacity:0"/>
		</linearGradient>
		<path style="fill:url(#SVGID_00000007395576623811782200000005147071140179098264_);" d="M7634.62,4580.38v-1417.7h-319.46v-43.85
			H8000v43.85h-319.46v1417.7H7634.62z"/>
	</g>
	<g>
		<path class="st10" d="M2130.98,4580.38v-1417.7h-319.45v-43.85h684.84v43.85h-319.46v1417.7H2130.98z"/>
		<path class="st10" d="M3106.03,3818.29v41.76h-430.12v676.49h511.54v43.84h-557.47V3118.84h557.47v43.85h-511.54v655.61H3106.03z"
			/>
		<path class="st10" d="M3471.38,4235.88l-85.6,344.5h-41.76l352.87-1463.64h64.72l361.21,1463.64h-45.93l-85.6-344.5H3471.38z
			 M3479.73,4194.11h503.18l-254.73-1023.08L3479.73,4194.11z"/>
		<path class="st10" d="M4586.31,3108.39c55.66,0,102.98,9.75,141.98,29.23c38.94,19.51,70.62,45.93,95,79.34
			c24.33,33.4,42.07,72.75,53.24,117.96c11.13,45.25,16.7,92.91,16.7,143.02v112.75h-45.93v-114.83c0-44.53-4.53-86.65-13.58-126.32
			c-9.07-39.67-23.69-74.11-43.84-103.35c-20.21-29.23-46.98-52.52-80.39-69.95c-33.4-17.38-73.81-26.1-121.11-26.1
			c-48.74,0-89.77,8.72-123.18,26.1c-33.42,17.43-60.23,40.72-80.39,69.95c-20.2,29.23-34.82,63.69-43.85,103.35
			c-9.07,39.68-13.58,81.79-13.58,126.32v747.48c0,44.55,4.5,86.31,13.58,125.26c9.03,39,23.66,73.08,43.85,102.3
			c20.16,29.24,46.97,52.57,80.39,69.95c33.4,17.41,74.44,26.1,123.18,26.1c47.3,0,87.7-8.68,121.11-26.1
			c33.4-17.38,60.18-40.71,80.39-69.95c20.15-29.23,34.76-63.31,43.84-102.3c9.04-38.94,13.58-80.71,13.58-125.26v-160.78h45.93
			v158.69c0,50.11-5.57,97.8-16.7,143.02c-11.16,45.25-28.9,84.57-53.24,117.98c-24.38,33.4-56.05,59.86-95,79.34
			c-38.99,19.47-86.33,29.23-141.98,29.23c-55.69,0-102.67-9.75-140.93-29.23c-38.3-19.47-69.62-45.93-93.96-79.34
			c-24.38-33.4-42.12-72.72-53.24-117.98c-11.16-45.21-16.7-92.91-16.7-143.02v-743.3c0-50.12,5.54-97.78,16.7-143.02
			c11.12-45.21,28.87-84.56,53.24-117.96c24.33-33.4,55.66-59.83,93.96-79.34C4483.64,3118.15,4530.62,3108.39,4586.31,3108.39z"/>
		<path class="st10" d="M5102.03,3870.49v709.89h-45.94V3118.84h45.94v709.89h528.23v-709.89h45.94v1461.55h-45.94v-709.89
			L5102.03,3870.49L5102.03,3870.49z"/>
		<path class="st10" d="M5887.09,4580.38h-43.85V3118.84h64.72l513.63,1367.58V3118.84h43.84v1461.55h-56.36l-521.98-1394.73
			V4580.38z"/>
		<path class="st10" d="M7108.49,3818.29v41.76h-430.11v676.49h511.53v43.84h-557.47V3118.84h557.47v43.85h-511.53v655.61H7108.49z"
			/>
		<path class="st10" d="M7634.62,4580.38v-1417.7h-319.46v-43.85H8000v43.85h-319.46v1417.7H7634.62z"/>
	</g>
</g>
</svg>
