<svg xmlns="http://www.w3.org/2000/svg" xml:space="preserve" id="Слой_1" viewBox="11 2534 1053 2461"><style>.st0{fill:#316397}</style><path d="M804.97 3311.06c-.33-8.48.63-16.05 1.24-24.29q.015-.645.06-1.29c-.16-.27-.08-8.85-.07-9.84.1-6.4.23-12.79.41-19.19-.33-1.28-.62-2.56-.83-3.87a190 190 0 0 0-.47 35.55c.07.85-.13 1.7-.57 2.42a7.5 7.5 0 0 0-1.11 3.39c-1.59 17.35-1.73 34.7-.4 52.06.07.96.2 2.02.31 3.05.34-12.51.87-25.02 1.47-37.52 0-.15-.03-.31-.04-.47" class="st0"/><path d="M1021.99 3362.68c-2.78-12-6.65-25.61-17.36-32.96-13.4-9.19-33.64-7.05-48.87-5.75-10.13.87-20.06 2.82-29.89 5.28-.85.69-1.75 1.33-2.75 1.87-.7.34-1.43.64-2.15.94-2.76 2.71-6.39 4.67-10.92 5.38-.84.65-1.68 1.3-2.52 1.94l-.11.07c-.17.1-.33.19-.51.28-.82.39-1.62.72-2.42 1.05-.09.05-.18.08-.27.13l-1.71 1.32c-.1.07-.2.14-.3.2-.06.03-.12.07-.18.09-.32.14-.64.27-.96.4-8.97 8.35-17.84 16.8-26.5 25.49-13.33 13.38-25.23 31.78-41.26 45.79-.64.57-1.05 1.35-1.14 2.19-.27 2.75-1.7 4.56-4.3 5.41-.84.25-1.54.84-1.94 1.62l-12.02 23.15a4.54 4.54 0 0 1-4.56 2.45 4.59 4.59 0 0 1-4.04-5.07c1.08-9.4-.59-18.29-5.01-26.68a3.42 3.42 0 0 1-.11-2.85c.76-1.79 1.79-3.26 2.89-4.61-.03-.28-.1-.56-.12-.84-.19-3.56.14-6.99.79-10.34-.75-2.91-.73-5.9.16-8.72-.01-.25-.06-.47-.06-.73.03-13.04.29-26.06.68-39.08-1.09-16.34-.93-32.67.57-49.01.01-.09.04-.17.05-.25.28-4.73.72-9.41 1.08-14.29l.06-1.08c-.19.34-.1-8.83-.08-9.85.01-.58.03-1.16.04-1.74-.7-1.6-1.19-3.4-1.34-5.47-.2-2.84.1-5.52.61-8.14.15-2.29.28-4.58.4-6.87-.41-2.25-.69-4.54-.71-6.84-.12-12.93-.35-25.9 2.71-38.5.11-2.1.24-4.19.45-6.27.3-2.35.55-4.32.77-5.98 0-1.32-.01-2.64.05-3.97.01-.3.03-.6.04-.9-1.2-7.62-.61-15.51-.14-23.14.11-1.86.36-3.67.66-5.45-.32-4.5-.32-8.94.13-13.35-.1-.76-.23-1.52-.3-2.29-1.97-21.38.27-42.31.5-63.68.14-12.98-.23-26.45.33-39.77-.42-9.32-1.09-18.41-2.24-26.91-.97-7.21-.8-14.41.67-21.08l-.18-1.39q-1.71-12.48-1.59-24.66c.13-12.17-.28-20.44-1.22-24.8-2.45-11.13-.8-24.18-.23-35.2.46-8.77-2.79-16.92-1.14-26.14q1.71-9.6 1.59-13.95c-.46-17.8.65-36.85-2.31-53.2-3.59-19.76-8.85-37.5-17.74-52.94-.55-.5-.93-1.15-1.13-1.87-8.44-14.01-19.98-26.09-36.24-35.95-4.15-2.51-8.16-5.22-12.08-8.06-1.33-.12-2.29-.79-2.85-1.71-.84-.07-1.56-.32-2.09-.76-.03 0-.06-.01-.09-.01-2.27.16-4.29-.41-6.09-1.64-1.33-.35-2.64-.73-3.95-1.14q-3.51.315-6.33-1.65c-3.54-.64-7.09-.56-10.7-.56h-9.37c-.22.15-.42.33-.61.52q-3.585 3.81-8.4 1.2a2.27 2.27 0 0 1-1.22-1.88c-1.42-19-5.18-39.82-11.28-62.45-1.63-6.02-3.57-11.25-5.81-15.69-5.01-9.88-5.98-19.93-14.75-27.77-15.95-14.27-22.53-25.54-46.22-28.19-49.12-5.52-79.74 23.49-87.8 69.54-2.27 13.09-4.37 24.18-4.13 34.88.23.64.26 1.32.12 1.98.09.31.13.62.13.92.13.39.23.79.24 1.2 0 .39.04.77.06 1.15.29 1.05.55 2.11.59 3.21v.27c.86 1.87 1.32 3.84 1.33 5.94l-.12.87c.04.21.08.43.11.64.71 2.36 1.57 4.73 2.64 7.14 1.13 2.52 1.58 6.62.65 9.26-.53 1.51-1.58 2.48-2.86 3.09-.14.1-.24.22-.39.31-.3.17-.62.28-.94.38-.45.21-.94.29-1.43.26-.89.04-1.79-.08-2.67-.25-.15-.03-.29-.09-.44-.12-1.54-.27-3.01-.79-4.13-1.53-.11-.07-.18-.18-.28-.26-.93-.51-1.85-1.06-2.77-1.62-1.7-1.02-3.56-1.72-5.23-2.79-.93-.59-1.85-1.25-2.63-2.03-.37-.37-.7-.78-1.03-1.2-.47-.29-.93-.59-1.34-.97-.86-.56-1.56-1.28-2.21-2.06-.48-.38-.91-.8-1.3-1.26-28.67-22-62.04-2.97-79.72 24.86-11.05 17.37-23.78 50.12-30.81 73.59-10.59 35.29-19.96 72.59-28.11 111.89-1.35 6.47-1.41 16.48-.2 30.02.09.92-.21 1.84-.83 2.51-1.31 1.48-2.9 1.93-4.76 1.34-.9-.29-1.65-.9-2.11-1.71-3.99-6.81-7.86-14.47-13.56-19.48-16.97-14.95-46.05-12.5-62.82-.74-22.58 15.8-43.17 60.32-54.31 87.51-9.26 22.55-14.58 50.8-22.41 76.26-.28.88-.22 1.83.14 2.68 3.82 8.83-.57 16.03-4.44 23.89-3.93 7.92-4.47 16.29-8.14 24.38-2.09 4.58-3.48 8.31-4.19 11.19a5681 5681 0 0 1-12.96 53.42c-2.31 9.34-.71 17.8-4.27 27.25a155.5 155.5 0 0 0-7.06 25c-1.25 6.44-5.5 12.16-6.69 18.82-.47 2.6-1.02 5.13-1.6 7.63-1 5.84-2.44 11.7-4.3 17.48l-.21.86c-.41 5.78-1.31 11.63-2.66 17.47-.54 7.65-4.27 14.39-4.32 22.63 0 .96-.31 1.89-.88 2.65q-3.99 5.445-3.36 12.36c.07.93-.13 1.86-.6 2.68-2.93 5.18-2.08 11.28-3.5 15.78-3.85 12.07-7.85 24.1-11.99 36.08-6.28 18.25-13.69 36.02-20.8 53.88-1.07 5.77-2.62 11.53-4.51 17.22-.8 7.8-2.49 15.7-4.91 23.48-1 6.9-2.68 13.84-4.91 20.68-.72 4.11-1.66 8.22-2.81 12.32-.3 11.21-2.55 22.78-6.35 34.04-.87 4.15-1.79 8.29-2.78 12.42-.73 3.01-1.65 5.94-2.65 8.83-1.95 15.87-3.89 31.74-6.15 47.57.25 4.06.59 8.12.44 11.96-.27 6.89-.79 13.75-1.24 20.62.05 8.72-.16 17.45-.68 26.17-.71 11.85.63 25.03-.48 37.7-.46 5.13 2.65 12.84 2.39 19.54-.68 16.8.77 31.64-1.59 50.06-1.06 8.33-1.54 15.85-1.42 22.55.78 43.97 4.03 87.75 9.77 131.34 1.94 14.78 3.65 37.93 7.12 57.89 9.97 57.24 24.12 111.35 44.99 163.52 3.19 7.95 5.68 16.14 7.46 24.55.07.33.28.6.57.74l.74.4c.58.31 1 .86 1.14 1.51 1.99 8.81 4.29 17.52 6.89 26.14 3.19 10.54.85 21.87 1.74 32.92.13 1.63.13 3.25.09 4.88 3.55 18.72 5.15 37.93 4.55 57.99-.65 21.73-3.62 43.31-4.59 65.02 1.12 20.83 1.16 41.72.87 62.71-.02 1.13-.01 2.25-.02 3.38.13 1.63.24 3.28.28 4.97.03 1.1-.11 2.12-.32 3.1-.01 33.33 1.71 66.54 1.9 99.88.01 1.85-.19 3.57-.54 5.17.6 3 .67 6.12.17 9.14.67 3.15.62 6.65-.43 10.47-.25.9-.44 1.81-.64 2.72.86 28.95-.6 57.76-3.86 86.44.11 1.49.07 2.99-.1 4.48.47 3.22.33 6.55-.43 9.71 0 .19.02.38.02.57 0 .66-.04 1.32-.1 1.96.03.56.11 1.09.1 1.67-.13 12.64-1.8 25.16-4.11 37.56.08 11.24-.17 22.44-.81 33.61-.85 14.55-6.66 32.81 14.52 36.39 2.04.35 4.07.47 6.1.4 3.77-48.55 11.97-96.83 12.8-145.61 1.22-71.56 5.74-143.09 5.9-214.66.01-2.32.07-4.62.19-6.9-1.02-4.2-1.93-8.55-1.66-13.18.34-6.46-2.36-12.59-2.08-19.54 1.22-29.3-.91-58.72 3.76-87.77 1.96-12.39-1.08-24.55.37-37.59 5.21-46.39-8.06-83.41-23.89-126.07-15.75-42.55-30.87-89.93-38.02-132.76-2.09-12.53-3.89-25.09-5.47-37.68-.77-4.51-1.51-9.03-2.09-13.57-1.38-5.29-2.65-10.61-3.58-16-1.17-6.8-1.9-13.65-2.42-20.53-.01-.08-.04-.14-.05-.22-3.73-20.14-3.99-40.19-3.49-60.29-1.87-13.85-2.43-27.49-1.21-41.17 0-.06-.03-.12-.03-.18-1.14-52.63-1.74-105.25-1.79-157.88-.06-47.36 4.61-95.68 15.18-138.06 2.17-8.71 4.83-17.89 7.91-27.48-.12-17.29 6.74-33.26 14.46-48.51.42-6.6 2.27-12.93 7.37-19.24.47-4 1.12-7.98 2.16-11.91 3.46-13.07 8.41-25.94 13.24-38.74 6.02-26.74 13.4-53.17 22.62-78.98.33-1.78.76-3.54 1.3-5.26 1.22-5.02 2.45-10.02 3.68-15.02-.06-4.5.56-8.88 1.79-13.05.45-3.73 1.38-7.34 2.69-10.8.4-6.13 1.83-11.97 4.3-17.54.2-5.72 1.58-11.19 3.79-16.31.76-4.55 1.46-9.09 2.02-13.58.09-1.51.24-3.01.48-4.49.21-1.92.44-3.84.61-5.75.44-5.11 1.62-10.03 3.39-14.61.41-4.74 1.23-9.37 2.41-13.94 1.62-16.82 4.64-33.47 12.55-47.98.12-1.49.22-3.02.33-4.69.06-.91.37-1.8.91-2.56a57 57 0 0 0 2.22-3.42c.12-.74.23-1.46.32-2.12.18-1.33.35-4.09.85-5.95 1.01-3.81 2.66-7.52 4.6-10.94.35-.61.74-1.2 1.13-1.79.06-.58.14-1.16.18-1.75.54-8.29 4.1-13.67 5.47-21.44.95-5.45 2.17-9.99 3.67-13.61 3.02-7.33 5.35-14.87 7.01-22.64 2.45-11.42 8.49-21.5 12.27-33.03 4.99-15.28 13.02-31.61 24.09-48.98 9.49-14.9 22.05-22.12 37.68-21.64 10.02.28 19.31 5.78 22.21 15.32 4.1 13.57 4.01 28.22-.28 43.94-3.82 13.98-1.74 36.34-7.69 56.53-2.79 9.48-1.96 18.97-5.15 28.79-2.56 8-2.45 13.78-1.82 21.5.08.95.36 1.83.85 2.65 4.44 7.35-2.02 9.08-4.16 13.67-4.21 9-1.85 17.29-3.3 25.69-1.77 10.17-1 20.02-4.41 29.5-4.9 13.53-5.3 25.91-5.38 39.9-.03 5.64 3.08 12.1.43 19.22a4.9 4.9 0 0 0-.2 2.71c1.79 8.17-.14 17.03-.03 23.75q.66 35.715-5.64 70.8c-.17.93-.11 1.85.17 2.76.68 2.18.87 4.2.57 6.04-4.01 24.83-14.94 44.11-32.81 57.84-12.7 9.77-36.71 17.23-19.56 38.5 7.29 9.06 13.61 2.79 19.31-3.25 2.76-2.9 5.79-4.48 8.9-5.7 11.04-13.59 23.57-26.03 33.13-40.68 8.42-12.9 12.85-26.72 16.9-41.02.12-4.04.28-8.08.6-12.11-.06-1.13-.13-2.27-.18-3.39-1.53-20.59-5.64-41.64-2.59-61.87 1.43-9.52 2.25-19.09 2.46-28.73.03-1.24.04-2.49.05-3.73.06-6.24 2.36-12.1 2.39-18.65.06-10.71 9.11-44.83 9.11-46.13.13-20.47 11.59-65.56 11.19-69.71-.09-.8-.75-1.4-1.54-1.4h-2.53c-.07 0-.14 0-.21-.01-.97-.11-1.66-1-1.55-1.98l.77-5.92a2.1 2.1 0 0 1 1.79-1.82l3.79-.54a2.04 2.04 0 0 0 1.71-1.54c1.77-6.97 3.26-13.96 4.47-20.99 1.51-8.6 6.86-16.52 4.13-27.45-.2-.87-.11-1.77.26-2.56l5.44-11.73q.63-1.365.63-2.85c-.2-16.94 8.91-29.84 7.75-47.61-.34-5.04 2.14-10.05 2.93-13.61 5.26-23.83 10.69-47.63 16.29-71.42 1.54-6.55 6.75-14.35 8.57-22.13 9.65-40.84 20.42-88.85 41.95-124.62 11.65-19.34 34.74-29.76 54.39-13.13 3.68 3.11 6.22 7.45 7.6 13.01 4.2 16.71 4.46 33.41.8 50.12-4.24 19.36-7.46 37.13-12.22 55.47-5.89 22.67-8.08 45.67-6.58 69 .07.89.43 1.74 1.03 2.42 6.58 7.18 1.51 12.99-1.54 19.96-3.33 7.55-1.28 22.1-1.25 30.56 0 3.65-.83 8.16-2.48 13.56-5.58 18.28 2.59 32.58-3.39 53.08a5.5 5.5 0 0 0-.03 2.85c.97 3.8-.05 6.63-3.05 8.49-.85.53-1.38 1.45-1.4 2.45-.17 7.14-1.4 13.31-2.05 20.4-.15 24.11-.75 48.2-1.13 72.31-.28 18.16 1.75 37.68.19 56.26.15 1.05.25 2.14.26 3.28.29 25.14-13.65 45.46-19.19 68.96-.1 3.82-.78 7.4-2.12 10.72-6.34 15.85-9.38 31.03-9.11 45.54.26 13.73 16.6 11.96 21.81 2.68 3.03-5.37 6.36-10.79 9.59-16.31 3.83-10.41 7.19-21.03 10.58-31.76 1.97-6.25 4.14-12.41 6.37-18.54.39-13.71 10.44-35.8 9.36-53.88-.67-11.34.52-21.57 1.98-32.31-.12-.78-.2-1.59-.2-2.45v-41.33c-3.4-27.51.93-61.19 1.07-93.38.03-10.22-.03-24.92 3.9-34.4 1.77-4.21.26-7.89 1.57-11.96 1.48-4.58 3.59-7.86 4.13-12.79.21-1.87.57-3.69 1-5.48.13-14.58.9-29.1 2.15-43.55-1.21-3.27-.33-8.53 1.41-14.49 3.52-32.45 9.28-64.63 15.78-96.68l.25-3.05c.05-.79.36-1.54.82-2.2l.24-1.14c-.7-10.45.3-21.08 3.35-32.06.22-.78.47-1.5.72-2.24.62-4.92 1.87-10 4.35-15.7.47-1.07.87-2.24 1.3-3.37 1.07-12.25 3.2-24.48 5.24-36.58.02-.46.05-.92.06-1.38 0-5.32 1.13-10.43 3.14-15.13.39-19.49 2.09-38.85 5.26-58.05 4.03-24.32 7.46-41.9 28.88-48.33 2.18-1.33 4.68-2.24 7.04-2.82 1.66-.41 3.37-.7 5.09-.92 4.64-1.96 9.68-3.07 14.92-3.07 8.28 0 16.05 2.72 22.49 7.26 2.44.44 4.94.8 7.58.95 1.99.09 3.55 1.22 4.67 3.39.37.72.98 1.3 1.74 1.65 3.87 1.77 5.57 4.85 5.1 9.26-.11.98-.68 1.84-1.54 2.31-1.29.68-2.09 1.56-2.46 2.61.71 2.12 1.22 4.31 1.55 6.55 9.91 21.4 9.27 40.07 10.98 61.94.07.97.5 1.89 1.2 2.56 2.89 2.83 3.38 6.19 1.48 10.08-.44.93-.5 1.98-.17 2.93 5.18 15.15 9.68 43.09 1.08 57.44-2.81 4.71-4.02 9.33-3.65 13.87.09.96.5 1.85 1.17 2.53 2.64 2.66 4.43 5.79 5.38 9.4.26.97.78 1.84 1.51 2.51l6.69 6.01a1.9 1.9 0 0 0 2.96-.51c1.17-2.17 2.81-6.64 3.6-11.01v-5.25c0-.78.08-1.54.12-2.3-.28-1.11-.74-2.04-1.47-2.68a4.16 4.16 0 0 1-1.31-2.34c-2.49-13.88 3-22.34 14.2-29.89 5.36-5.72 12.24-9.98 19.91-12.08 12.28-4.9 29.39-4.37 37.97 6.6a5.1 5.1 0 0 0 2.02 1.51c3.97 1.54 6.94 4.1 8.91 7.69.49.87 1.14 1.62 1.94 2.25 9.06 7.01 9.68 16.92 13.95 27 5.55 13.04 6.49 23.72 7.03 37.11a5.3 5.3 0 0 1-.6 2.68c-.15.29-.27.58-.41.87.02.16.05.3.06.46.24 2.54-.43 4.86-1.65 6.88.46 4.77.63 9.57.69 14.38 1.42 4.24 1.81 12.43 1.16 24.61q-.735 12.585 5.01 22.95c.47.84.71 1.72.71 2.65-.03 19.65 2.62 39.3-.26 58.86a498 498 0 0 0-2.85 23.69c-.09.95-.4 1.83-.91 2.65-.02.03-.04.07-.06.1-.65 33.97-4.49 68.54 1.51 102.15.67 3.77-.03 7.08-1.56 9.79.03.81.09 1.61.06 2.44v2.91c-.01 2.39-.28 4.71-.67 6.99.01.8.03 1.61 0 2.41-.07 1.8-.26 3.52-.49 5.2.1 4.67.17 9.33.25 14 .44 2.39.7 4.82.68 7.27-.03 2.56-.24 5.11-.49 7.65.04 4.96.1 9.92.09 14.88 0 1.22-.15 2.44-.36 3.67 0 .23.04.47.03.7-.03 5.24-.65 10.43-1.08 15.64.53 18.61 1.32 34.78 2.35 48.47.77 10.05 4.81 18.37 4.78 27.42 0 26.22-.28 52.44-.83 78.65 0 .34-.16.67-.43.88l-.88.74c-.73.6-1.19 1.47-1.28 2.42-.46 5.58-2.34 10.88-2.25 16.2.26 20.08.63 38.53-.34 60.09-.3 7.03-.25 14.06.06 21.11.44.71.63 1.55.64 2.39.12.38.2.77.2 1.17v11.41c1.36 13.09 1.75 26.21 1.67 39.37 1.22 1.37 1.41 3.55.58 5.18.32.51.55 1.06.55 1.67.08 17.69.78 35.35 2.11 52.97.83 10.74-.77 21.39-1.2 32.27a4.4 4.4 0 0 1-.94 2.53c-.17.22-.28.43-.42.65.45 8.46-2.37 16.96-4.86 25.07-.97 4.46-2.13 8.96-3.63 13.28-1.65 6.47-3.38 12.89-6.2 18.99-.77 4.54-2.85 8.09-4.22 12.21a989 989 0 0 1-13.73 39.1c-2.32 6.25-4.17 12.72-5.55 19.42-.2 1.01-.75 1.91-1.55 2.55a4.386 4.386 0 0 1-6.17-.67c-14.14-17.6-32.62-26.37-55.42-26.31-8.34.03-13.07 16.72-14.15 22.67-.07.41-.1.82-.07 1.23a5.04 5.04 0 0 0 5.37 4.69c19.99-1.45 35.51 9.23 47.3 24.46 11.48 14.84-27.65 27.91-34.74 30.61-15.43 5.89-21.19 19.48-15.01 35.34.33.87.94 1.61 1.74 2.11 6.66 4.1 12.02 9.23 20.3 8.2 8.09-.97 15.44-3.94 22.07-8.91.75-.56 1.33-1.32 1.68-2.19 3.87-9.78 9.39-18.3 16.55-25.57 10.79-10.94 17.46-20.39 26.57-30.7 2.85-3.22 3.27-4.76 4.47-8.66a299.4 299.4 0 0 1 19.91-48.67c9.06-17.63 14.35-33.4 20.9-50.92 1.54-4.1 1.25-7.95 2.31-11.48q7.2-23.7 6.75-48.3c-.13-7.25 1.26-14.21 3.11-21.09-.06-5.5 1.04-10.83 2.35-16.13.45-4.15 1.12-8.27 1.9-12.38.34-3.79.92-7.55 2.05-11.17.31-2.58.73-5.13 1.48-7.64.19-.63.49-1.12.84-1.55 3.42-15.99 11.8-30.46 18.09-45.49 3.69-8.8 7.19-17.74 12.04-25.98 3.28-5.58 6.56-11.35 10.8-16.29 2.29-5.67 4.91-11.11 8.86-15.91 13.09-15.96 36.99-39.5 59.61-47.66 2.11-1.91 4.75-3.33 7.82-4.19 1.6-.92 3.27-1.57 4.97-1.97.54-.32 1.09-.61 1.66-.86 1.21-.73 2.5-1.31 3.84-1.81 2.01-.97 4.3-1.61 6.84-1.91 2.29-.96 4.9-1.53 7.82-1.63 1.85-.48 3.85-.77 6.04-.77 4.09 0 7.58.93 10.5 2.5 4.04 1.24 7.27 3.5 9.62 6.45.68.26 1.17.9 1.2 1.67 4.66 7.22 4.9 17.27.71 24.77l.04 1.33c.01.83-.4 1.59-1.06 2.07-.42 2.44-1.21 4.81-2.35 6.98-.06.18-.11.37-.17.55-1.83 10.63-7.45 17.91-10.34 28.38-6.04 21.96-17 44.6-19.71 61.51a461 461 0 0 1-6.98 34.63c-.23.91-.64 1.73-1.22 2.45-.66.82-1.03 1.51-1.11 2.08-3.39 29.93-11.93 56.87-20.76 85.38-2.79 8.97-4.5 17.49-7.15 24.66-8.8 23.64-9.71 44.54-10.85 73.04-.91 22.75 1.91 47.96 1.91 67.46.02 27.13-.11 54.27-.4 81.42-.14 15.01-2.28 33.32-10.17 46.39-4.93 8.19-8.66 15.93-15.77 22.27-.12.46-.31.92-.65 1.39-7.29 10.3-15.89 19.52-23.85 29.29-3.8 4.66-7.44 9.53-10.6 14.65-.01.04-.01.07-.02.11-1.4 4.39-3.58 8.31-6.21 11.94-.61 1.3-1.24 2.59-1.88 3.86-1.5 2.96-5.61 11.12-10.1 12.82-.73 1.22-1.6 2.33-2.53 3.39-6.12 11.06-17.39 18.9-25.72 28.15-5.95 6.6-11.56 13.5-17.49 20.13-.38.72-.92 1.35-1.63 1.77-.14.08-.26.19-.39.28-1.26 1.23-2.58 2.44-3.92 3.68-1.29 2.17-2.64 4.3-4.12 6.33-.11.15-.2.3-.32.43a45 45 0 0 1-4.48 5.22c-.07.29-.17.56-.2.87-.13.99-.63 1.88-1.4 2.51-6.86 5.52-9.74 13.44-14.72 19.42-6.51 7.8-12.25 16.83-17.23 27.08-1.75 3.59-4.73 7.02-8.94 10.28-15.41 21.61-27.68 35.51-50.23 47.56-12.59 6.72-21.47 16.74-32.95 24.95-2.11 1.51-4.09 2.96-5.97 4.4-.19.28-.43.63-.79 1.15-1.91 2.93-3.75 5.89-5.43 8.96-.32.58-3.84 7.69-3.75 7.15-6.31 14.96-9.83 31.37-13.05 47.18-4.2 20.61-9.64 40.76-13.39 60.7-.37 5.62-.92 11.22-1.62 16.81.36 15.11.67 30.2-1.02 45.27.49 4.6 1.29 9.16 1.83 13.76.43 2.49.8 4.99 1.03 7.51.01.1.01.19.02.29l.68 3.32c.17.88.1 1.79-.2 2.65-.02.05-.03.09-.04.14.17 2.44.25 4.9.37 7.34.36 2.1.84 4.18 1.52 6.24.47 1.43.2 2.62-.47 3.52.29 1.36.51 2.75.54 4.23.11 7.14.15 14.28.11 21.42-.02.43.27.82.68.94 2.05.63.14 125.13-.65 137.29-.22 3.24-.89 7.17-1.66 11.38-.61 5.95-1.43 11.86-2.42 17.74-.19 2.45-.4 4.91-.64 7.36.07 1.47.23 2.86.51 4.13 1.22 5.56 1.17 10.22 0 14.07 7.72 20.12 4.05 46.7 1.14 68.17 2.93 6.43 3.58 13.91 1.88 22.47-.19.93-.15 1.84.11 2.73.25.8.38 1.59.4 2.39.8 20.12 1.06 40.25.8 60.37-.28 20.56 3.67 41.75 4.1 63.02.13 6.08 1.03 12.3 2.68 18.68 3.19 12.42 5.16 25.03 5.92 37.85.23 3.82 2.14 6.78 2.28 11.02.17 4.93 1.3 9.14 2.64 13.17 1.34.26 2.66.51 3.97.71 1.79.28 3.57.55 5.35.78.94-1.19 2.11-2.31 3.54-3.3 1.23-.85 2.41-1.56 3.57-2.16 2.63-1.74 4.75-3.67 6.39-6.12-2.91-12.39-5.12-24.92-6.76-37.55-2.08-6.52-2.58-13.6-2.67-20.43 0-.21.03-.41.03-.62-1.87-9.88-3.94-19.92-3.37-29.92.02-.37.07-.73.11-1.09-1.41-9.63-2.42-19.31-2.76-29.09-.79-22.81-1.09-45.64-1.21-68.48-.96-12.92-1.31-26.21-.08-38.54 0-7.1.01-14.21.01-21.31 0-2.83.3-5.6.86-8.3-.05-1.19-.06-2.37.06-3.46 1.33-11.77 1.4-23.55.23-35.34-.74-7.35-4.27-18.23-3.62-27.54.82-11.85 2.78-24.44 5.89-37.79 2.36-10.19 2.31-20.59 4.02-31.01 5.84-35.74 4.1-68.63 2.34-104.54-.49-9.76-1.3-18.6-2.42-26.51-3.17-22.33-4.58-43.93-4.21-64.81.23-14.18 3.16-32.55 3.5-49.12.2-10.91 4.36-21.16 6.04-32.89 8.51-59.94 59.43-75.07 95.57-115.08 10.07-11.15 18.63-21.27 25.72-30.39 4.34-11.68 10.27-22.89 17.21-32.84 7.09-16.51 17.22-31.76 28.79-43.33 2.23-2.23 4.6-4.36 7.02-6.43 5.07-5.5 10.55-10.69 15.37-16.17 3.06-3.48 6.01-7.06 9.13-10.5 2.55-2.81 5.46-5.32 7.58-8.49 3.43-5.12 6.22-11.03 11.27-14.73.17-.29.36-.57.59-.82.61-.66 1.21-1.34 1.82-2 3.01-7.43 11.41-15.34 16.13-22.42 10.62-15.98 23.72-29.76 35.82-44.42 26.37-31.92 23.27-53.31 24.55-92.21.8-23.92.8-47.64.68-71.56 0-.93-.26-1.84-.74-2.62-.8-1.37-1.08-2.75-.85-4.16.59-3.73 1.03-7.42 1.34-11.09-.19-5.93-.08-11.94.02-17.97-.11-1.42-.22-2.85-.28-4.28-.12-2.71-.07-5.47.05-8.23-.37-4.72-.36-9.3-.09-13.77.09-15.95 4.37-32.7 11.28-48.3.33-2.2.7-4.39 1.09-6.59.99-8.25 2.96-16.59 5.71-24.76.73-2.61 1.48-5.21 2.27-7.81 1.1-4.8 2.49-9.57 4.15-14.28 1.28-5.1 2.93-9.98 5.09-14.72.81-8.45 2.62-17.02 5.32-25.43.23-7.51 1.36-15.19 3.22-22.82 1.13-13.44 4.95-27.24 10.65-40.23.33-1.54.67-3.17 1.05-4.93 1.82-8.49.48-21.59 4.76-28.48.47-.78.72-1.61.74-2.51.04-1.11.21-2.17.46-3.2.67-8.92 4.12-16.96 9.6-23.89 3.46-11.15 7.77-24.11 12.94-38.93 1.5-4.29 2.54-8.54 3.18-12.75-.38-6.49-1.11-12.92-2.59-19.3" class="st0"/><path d="M144.63 3386.17c1.6-6.73 3.27-13.44 5.06-20.13-2.04 6.43-3.56 11.24-3.56 11.24s-24.05 82.96-1.5 8.89" class="st0"/><path d="M121.3 3462.12c.2-.39.37-.76.57-1.15l20.6-70.98 2.64-5.85c4.37-18.19 9.39-36.21 15.25-53.97l-5.28-5.05-39.75 143.13h2.87c1.02-2.06 2.05-4.1 3.1-6.13m657.07-78.54c.56 3.08.71 6.16.72 9.26l15.82-105.12L780.3 3221l-2.39 161.46c.21.35.38.72.46 1.12m-446.85-253.32 19.32-77.77-25.14 42.87zm-25.47 4.84 10.32-64.78 9.33 40.55-9.83 39.74m148.47-73.46 25.19-120.43-11.63-52.35-13.53 169.36zm342.02 361.7c-.09-.34-.15-.69-.15-1.04-.01-4.19-.2-8.38.76-12.49l-3.75-28.64-8.3 30.23 11.3 13.12v-.03c-.01-.4.04-.78.14-1.15" class="st0"/><path d="M779.21 3172.91v221.63c.04.72.05 1.44 0 2.16v34.38l15.7-168.98zm-617.44 25.68 29.58-115.56v47.23M640.9 4885.44c0-.21.03-.41.03-.62-1.87-9.88-3.94-19.92-3.37-29.92.02-.37.07-.73.11-1.09-1.41-9.63-2.42-19.31-2.76-29.09-1.49-42.75-1.28-85.56-1.28-128.32 0-3.15.4-6.23 1.1-9.21l-.17-7.92 3.94-108.78-24.31 9.57 9.14 87.25-18.05-36.8c-.06.31-.12.62-.17.94l4.84 147.81 30.44 167.07 8.54-9.32c-2.21-10.3-3.99-20.69-5.34-31.15-2.1-6.51-2.6-13.59-2.69-20.42" class="st0"/><path d="m195.02 3070.32-16.11 63.65.77 35.97 15.34-59.48zm-12.36 167.91c.74-4.49 1.43-8.96 1.99-13.39.08-1.42.24-2.81.45-4.2.22-2.02.47-4.04.64-6.04.78-9.01 3.75-17.46 8.54-24.41l11.06-64.73-25.63 46.02 1.5 70.4c.42-1.24.93-2.45 1.45-3.65m787.14 108.62c1.04-.13 2.11-.23 3.24-.23 4.11 0 7.6.94 10.53 2.51 4.66 1.43 8.24 4.25 10.64 7.87l.3.12 6.89-19.4zm-192.63-505.54c.03 2.71.03 5.42.02 8.14l.67 54.92 1.36 110.52 15.7-110.52zm-1.21-50.85 10.3 43.14m-67.58-96.24 2.78.59c3.24.29 6.38.97 9.38 1.98l.27.06.7.3c1.68.61 3.32 1.32 4.9 2.14l4.46 1.95 2.6 1.93c1.24.83 2.44 1.71 3.59 2.66l3.02 2.25 7.57 9.14 2.18 5.95c.31.53.62 1.05.91 1.59l6.72-3.13 4.21-10.66-8.09-13.84-34.32-20.09-28.38 16.79 9.38.39zm-62.99-131.63-32.78-14.49 16.25 16.49 18.22-.03c-.61-.61-1.17-1.27-1.69-1.97m20.11 217.59v-34.8c0-1.53.09-3.03.25-4.5-.15-1.39-.25-2.8-.25-4.22 0-5.75 1.24-11.27 3.46-16.32l-.68-12.27-18.42-122.15-21-21.31-13.54.02 10.54 7.72 6.48 13.19.42 4.56c.62 2.73.97 5.54.97 8.43 0 .45-.05.88-.07 1.32l1.24 13.43 2.12 26.95.68 36.82-2.29 34.87-.84 42.77-4.29 51.31-.12 44.6-4.29 51.25 24-3.78h9.24c-.06-.19-.14-.39-.19-.58-.59-1.89-.68-3.79-.25-5.68.07-1.62.52-3.14 1.29-4.57.04-.12.07-.25.1-.38-.66-1.5-.98-3.09-.92-4.79v-.73c.01-1.86.36-3.63 1.03-5.3.15-.6.25-1.2.47-1.78.09-.52.15-1.05.29-1.56-.19-.94-.33-1.93-.34-3-.03-5.82.97-11.46 2.05-17.07.03-.26.05-.52.1-.78-.3-1.93-.25-3.92.15-5.83-.35-1.77-.44-3.6-.2-5.39-.09-2.38-.14-4.77-.05-7.22.09-2.34.27-4.66.47-6.99-.54-.97-.97-2-1.28-3.1l-.51-3.79c-.07-1.96.33-3.79 1.23-5.49.12-.37.33-.68.48-1.02q.27-2.595.72-5.16c.07-.84.22-1.66.45-2.45.03-.17.07-.34.1-.5-.01-.21-.07-.43-.07-.64v-8.72c0-1.62.33-3.12.82-4.54-.04-.91-.09-1.81-.1-2.73-.01-.98.09-1.89.24-2.76z" class="st0"/><path d="M670.02 2975.95c.01-.08.03-.16.05-.24-1.8-11.08-1.61-22.51-.42-33.77-.17-.44-.32-.87-.44-1.3-.59-1.89-.68-3.79-.25-5.68.04-.97.26-1.89.56-2.79l-33.36 12.82-1.21 55.36 1.21 19.67 3.96 16.21-2.58 16.26-2.58 17.83-2.3 21.06-4.47 16.19 5.97 9.12 18.12-2.91 7.89-3.31 5.36-11.33 3.87-20.06 2.02-14.98v-16.23l-1.64-18.18c-3.95-17.62-2.77-37.18.24-53.74m-9.86-351.75-7.01 7.49 7.01 6.09zm-74.65-22.53h30.87l9.24 6.09 26.64 3.84-78.38-27.14 17.74 15.24h16.51l-4.19.36zm51.41 16.35c.47 1.02.82 2.06 1.13 3.12 3.71 5.97 5.92 12.93 5.96 20.31l9.14-9.76-16.42-14.28c.05.13.13.25.16.39zm-4.48-22.56-48.4-15.85" class="st0"/><path d="m628.18 3107.57-2.21 22.69-1.34 10.55-4.78 9.8-1.07 15.62-3.33 19.58-2.54 23.11-1.98 17.47-2.8 24.79-6.74 27.54-1.56 28.95v13.2l1.98 12.85.74 6.39 4.5 5.9 6.96 1.41 5.84-1.72 6.12-20.59v-29.08l1.23-22.3.98-18.42 3.35-13.7 3.47-14.12v-13.86l4.71-14.28 3.97-26.44 5.23-24.36 3.35-18.29 7.9-19.8v-9.29" class="st0"/><path d="m608.13 3251.18 5.92-52.46c.23-2.28 1.2-4 2.9-5.15.6-.4 1.41-.24 1.82.36.03.05.06.1.09.16 6.21 12.76.26 17.71 1.54 29.9.09.91-.04 1.78-.4 2.62-2.35 5.43-1.17 9.98 3.56 13.64.73.55 1.12 1.44 1.05 2.36l-1.42 20.79c-.08.97.06 1.92.4 2.85 1.37 3.78.97 7.57-1.2 11.39a2.14 2.14 0 0 1-2.65.94l-8.77-3.39c-1-.38-1.68-1.32-1.74-2.39zm-268.11-140.72 16.36-80.98 13.47-73.82-19.01 20.45-20.54 102.96-4.6 45.37m-19.65 5.82-10.24 80.03 5.12 29.03 19.19-77.07m156.62-79.22-10.35-25.77 1.02-21.67h11.95m330.79 16.62-31.5-33.18 2.46 121.78 5.95 14.9 23.07-101.95c.01-.52.02-1.04.02-1.55m-33.67-219.93 1.99-13.58-.12-.58zm8.28-71.91h-26.81l2.18 5.95c2.24 3.76 3.9 7.86 4.8 12.19l9.37 20.05 4.06 19.56 7.33-55.44c-.55-.64-.85-1.46-.93-2.31" class="st0"/><path d="M777.61 2803.89h9.45l7.47 20.99-17.68 12.35m-41.64-120.45c-.64-.31-1.14-.79-1.49-1.36-.83-.07-1.53-.31-2.07-.74l-3.56-1.05c-.39-.08-.77-.16-1.14-.25-3.58-.82-7.02-2.13-10.59-2.97-3.93-.92-7.88-.77-11.89-.77h-10.41l-7.98 1.72 15.09 21.89 43.39-4.3zm-66.23 233.29 5.54-111.38-11.21 14.55m-148.5-174.76.15 1.6c.14.47.19.96.13 1.44l.13 1.43c.08.32.14.64.15.96 0 .39.04.77.06 1.16.29 1.05.55 2.1.59 3.21v.32c.85 1.85 1.32 3.81 1.33 5.89l-.12.87c.17 1.03.29 2.06.38 3.1.05.13.11.26.16.39.16.71.23 1.44.23 2.16 0 .09-.02.17-.03.25.11.47.21.94.34 1.41.01.03.01.05.01.08.17.64.33 1.28.48 1.93.41 1.74.73 3.55.77 5.34.01.4-.01.78-.05 1.16 0 .13.04.27.03.4.1 1.36-.34 2.66-1.4 3.62l.46 4.99 7.76-41.7h-11.56z" class="st0"/><path d="m514.89 2679.82.23 2.43c.01.09.02.18.02.26l.02.25c.12.38.21.76.21 1.16.01.71.04 1.41.1 2.12 0 .05.01.16.02.27l.03.28v-.11c0 .3.09.62.14.91.23 1.36.53 2.72.81 4.07.49 2.31.95 4.66 1.14 7.02.05.12.1.25.16.37.16.71.23 1.44.23 2.16 0 .09-.02.17-.03.25.11.47.21.94.34 1.41.01.03.01.05.01.08.17.64.33 1.28.48 1.93.41 1.74.73 3.55.77 5.34.01.34-.04.66-.06.99.01.19.06.38.04.57.05.61-.05 1.21-.22 1.78.29.06.54.09.56-.01l-1.14 1.2q-.315.45-.78.81l-.63.66 2.16-.61 4.38-3.03 1.18-26.85z" class="st0"/></svg>